<svg width="80" height="81" viewBox="0 0 80 81" fill="none" xmlns="http://www.w3.org/2000/svg">
<path d="M32.4413 73.4633C32.0006 74.1082 31.1192 73.8844 31.0466 73.1068C30.827 70.7797 31.0284 68.394 31.6369 66.0916L42.202 26.1175C42.2477 25.9445 42.409 25.8355 42.56 25.8754L45.72 26.7106C45.871 26.7505 45.9574 26.925 45.9117 27.0979L35.3384 67.1033C34.7326 69.3851 33.7507 71.5464 32.4413 73.4633Z" fill="#D2BB3E"/>
<path d="M12.6403 45.5729L20.7607 42.9868C20.9519 42.9251 21.0458 42.68 20.9486 42.4965L14.6229 30.7837C14.4854 30.532 14.1296 30.6351 14.0913 30.9405L12.2966 45.2394C12.2693 45.4627 12.4466 45.634 12.6403 45.5729Z" fill="#D2BB3E"/>
<path d="M61.3971 58.0157L55.6148 51.7552C55.4791 51.6071 55.5185 51.3476 55.6937 51.2361L66.9805 44.1782C67.2244 44.0273 67.4827 44.2928 67.3652 44.5772L61.8607 57.8956C61.774 58.1032 61.5353 58.1645 61.3971 58.0157Z" fill="#D2BB3E"/>
<path d="M35.3296 59.1502C48.8014 62.7108 56.3826 55.9901 59.6044 51.8697C59.7363 51.7013 59.9655 51.7164 60.061 51.8964L60.9405 53.5606C60.9973 53.6666 60.9901 53.8043 60.9247 53.9114C57.606 59.3106 52.7259 62.9988 48.3538 64.625C41.2898 67.2536 34.0154 65.877 33.6503 65.8048C33.6404 65.8022 33.6329 65.8002 33.623 65.7976C33.265 65.6787 26.1489 63.2519 21.3061 57.4763C18.3185 53.9141 14.6842 48.7188 14.4199 42.4211C14.4135 42.2647 14.5107 42.1175 14.6466 42.0745L18.1398 40.9471C18.3017 40.8959 18.4585 41.0041 18.4844 41.1868C19.1938 46.322 21.7785 55.5687 35.3296 59.1502Z" fill="#D2BB3E"/>
<path d="M49.1922 42.2294L31.6343 37.5888C31.4832 37.5489 31.3969 37.3744 31.4426 37.2014L31.8465 35.6731C31.8922 35.5002 32.0535 35.3911 32.2046 35.431L49.7625 40.0716C49.9136 40.1115 50 40.286 49.9542 40.459L49.5503 41.9873C49.5014 42.1624 49.3433 42.2693 49.1922 42.2294Z" fill="#D2BB3E"/>
<path d="M43.8631 26.8541C39.413 25.6779 36.9045 20.5132 38.2722 15.3385C39.6398 10.1639 44.3725 6.91296 48.8227 8.08913C53.2728 9.2653 55.7805 14.4328 54.4136 19.6047C53.0467 24.7766 48.3133 28.0303 43.8631 26.8541ZM47.6836 12.399C45.279 11.7635 42.7191 13.5198 41.9794 16.3184C41.2405 19.1141 42.5959 21.9052 45.003 22.5414C47.4076 23.1769 49.9675 21.4206 50.7064 18.6249C51.4453 15.8291 50.0882 13.0345 47.6836 12.399Z" fill="#D2BB3E"/>
<path d="M30.8068 39.6085C32.3126 40.0065 33.9084 38.9099 34.3712 37.1591C34.8339 35.4084 33.9883 33.6665 32.4824 33.2685C30.9766 32.8705 29.3807 33.9671 28.918 35.7179C28.4553 37.4686 29.3009 39.2105 30.8068 39.6085Z" fill="#D2BB3E"/>
<path d="M48.9122 44.3937C50.4181 44.7917 52.0139 43.695 52.4766 41.9443C52.9393 40.1935 52.0937 38.4516 50.5879 38.0536C49.0821 37.6556 47.4862 38.7523 47.0235 40.503C46.5608 42.2538 47.4064 43.9957 48.9122 44.3937Z" fill="#D2BB3E"/>
</svg>
