<svg width="78" height="115" viewBox="0 0 78 115" fill="none" xmlns="http://www.w3.org/2000/svg">
<g clip-path="url(#clip0_618_7739)">
<path d="M4.47 87.6394C2.98 87.6594 1.49 87.7494 0 88.0694C1.49 88.3894 2.98 88.4794 4.47 88.5094C4.49 90.4294 4.58 92.3594 4.91 94.2794C5.24 92.3594 5.33 90.4294 5.35 88.5094C6.84 88.4794 8.33 88.3994 9.82 88.0694C8.33 87.7494 6.84 87.6594 5.35 87.6294C5.32 85.7094 5.24 83.7794 4.91 81.8594C4.59 83.7894 4.5 85.7094 4.47 87.6394Z" fill="#BDA523"/>
<path d="M44.4199 66.1196C42.9299 66.1496 41.44 66.2296 39.95 66.5596C41.44 66.8896 42.9299 66.9696 44.4199 66.9996C44.4399 68.9196 44.53 70.8496 44.86 72.7696C45.19 70.8496 45.2799 68.9196 45.2999 66.9996C46.7899 66.9696 48.28 66.8896 49.77 66.5596C48.28 66.2396 46.7899 66.1496 45.2999 66.1196C45.2699 64.1996 45.19 62.2696 44.86 60.3496C44.53 62.2796 44.4399 64.1996 44.4199 66.1196Z" fill="#BDA523"/>
<path d="M23.3101 108.249C21.8201 108.279 20.3301 108.359 18.8401 108.689C20.3301 109.009 21.8201 109.099 23.3101 109.129C23.3301 111.049 23.4201 112.979 23.7501 114.899C24.0801 112.979 24.1701 111.049 24.1901 109.129C25.6801 109.099 27.1701 109.019 28.6601 108.689C27.1701 108.369 25.6801 108.279 24.1901 108.249C24.1601 106.329 24.0801 104.399 23.7501 102.479C23.4301 104.409 23.3401 106.329 23.3101 108.249Z" fill="#BDA523"/>
<path d="M50.58 84.8895C47.82 84.9395 45.06 85.0994 42.29 85.6994C45.05 86.2994 47.81 86.4595 50.58 86.5095C50.63 90.0695 50.78 93.6295 51.4 97.1895C52.01 93.6295 52.17 90.0695 52.22 86.4995C54.98 86.4495 57.74 86.2895 60.51 85.6895C57.75 85.0895 54.99 84.9294 52.22 84.8794C52.17 81.3194 52.01 77.7595 51.4 74.1895C50.79 77.7695 50.63 81.3295 50.58 84.8895Z" fill="#BDA523"/>
<path d="M15.3101 70.5395C10.3901 70.5895 5.48006 70.7595 0.560059 71.3195C5.48006 71.8795 10.3901 72.0495 15.3101 72.0995C12.6901 74.7895 11.4801 76.3695 9.64006 78.8295C12.1001 76.9895 13.6801 75.7695 16.3801 73.1495C16.4201 75.8795 16.4301 78.6095 16.5401 81.3495C16.6701 84.6895 16.8201 88.0295 17.1501 91.3795C17.4801 88.0395 17.6301 84.6995 17.7601 81.3495C17.8601 78.6195 17.8801 75.8895 17.9201 73.1495C20.6101 75.7695 22.1901 76.9895 24.6601 78.8295C22.8201 76.3695 21.6001 74.7895 18.9901 72.0995C23.9101 72.0495 28.8201 71.8795 33.7401 71.3195C28.8201 70.7595 23.9101 70.5895 18.9901 70.5495C21.6001 67.8495 22.8201 66.2795 24.6601 63.8195C22.2001 65.6595 20.6201 66.8795 17.9201 69.4995C17.8801 66.7695 17.8701 64.0295 17.7601 61.2995C17.6301 57.9595 17.4801 54.6195 17.1501 51.2695C16.8201 54.6095 16.6701 57.9495 16.5401 61.2995C16.4301 64.0295 16.4201 66.7695 16.3801 69.4995C13.6801 66.8795 12.1001 65.6595 9.64006 63.8195C11.4801 66.2695 12.7001 67.8495 15.3101 70.5395Z" fill="#BDA523"/>
<path d="M77.42 35.1301C70.72 36.8901 69.54 38.3201 68.08 46.4301C66.63 38.3201 65.45 36.8901 58.74 35.1301C65.44 33.3701 66.62 31.9401 68.08 23.8301C69.54 31.9501 70.72 33.3701 77.42 35.1301Z" fill="#BDA523"/>
<path d="M59.12 48.2096C55.77 49.0896 55.18 49.7996 54.45 53.8596C53.72 49.7996 53.13 49.0896 49.78 48.2096C53.13 47.3296 53.72 46.6196 54.45 42.5596C55.18 46.6196 55.76 47.3296 59.12 48.2096Z" fill="#BDA523"/>
<path d="M77.7401 5.65C74.3901 6.53 73.8001 7.24 73.0701 11.3C72.3401 7.24 71.7501 6.53 68.4001 5.65C71.7501 4.77 72.3401 4.06 73.0701 0C73.8001 4.06 74.3901 4.77 77.7401 5.65Z" fill="#BDA523"/>
</g>
<defs>
<clipPath id="clip0_618_7739">
<rect width="77.74" height="114.9" fill="white"/>
</clipPath>
</defs>
</svg>
