<svg xmlns="http://www.w3.org/2000/svg" width="29" height="360" fill="none"><g clip-path="url(#a)"><path fill="#BDA523" d="M0 0v360h7.145v-12.918H21.82V360H29V0H0Zm7.145 221.151v-12.917H21.82v12.918H7.145v-.001Zm14.675 10.224v12.917H7.145v-12.917H21.82ZM7.145 198.01v-12.879H21.82v12.879H7.145Zm0-23.141V161.99H21.82v12.879H7.145ZM21.82 336.858H7.145v-12.917H21.82v12.917Zm0-23.141H7.145v-12.918H21.82v12.918Zm.036-23.142H7.18v-12.917h14.675v12.917Zm0-23.141H7.18v-12.918h14.675v12.918ZM7.18 105.483V92.565h14.675v12.918H7.18Zm14.675 10.224v12.918H7.18v-12.918h14.675ZM7.146 0H21.82v12.918H7.145V0Zm0 23.142H21.82v12.917H7.145V23.142Zm0 23.141H21.82v12.918H7.145V46.283Zm0 23.142H21.82v12.917H7.145V69.425Zm0 69.423H21.82v12.918H7.145v-12.918Z"/></g><defs><clipPath id="a"><path fill="#fff" d="M0 0h29v360H0z"/></clipPath></defs></svg>