<svg width="136" height="49" viewBox="0 0 136 49" fill="none" xmlns="http://www.w3.org/2000/svg">
<path d="M20.6543 15.6398C20.6754 16.1938 20.4162 16.4535 19.8633 16.4323H18.9348C18.3819 16.4535 18.1226 16.1938 18.1438 15.6398V3.07335C18.0644 1.9442 18.7364 1.27095 19.8845 1.34781H24.2943C25.6011 1.34781 26.609 1.56516 27.3788 1.98131C28.5057 2.636 29.1592 3.88443 29.1592 5.44828C29.1592 8.20224 27.4979 9.64946 24.2917 9.64946H20.6516V15.6398H20.6543ZM23.8393 8.46465C24.8684 8.46465 25.6778 8.10682 26.0535 7.49453C26.3709 6.99887 26.5482 6.26466 26.5482 5.49334C26.5482 4.71937 26.3709 4.00636 26.0535 3.5107C25.6382 2.8772 24.8869 2.54058 23.8393 2.54058H21.4452C20.8923 2.51938 20.6331 2.77913 20.6543 3.33311V8.4673H23.8393V8.46465Z" fill="white"/>
<path d="M35.7676 15.0071C34.5799 16.1177 33.572 16.5736 32.2863 16.5736C30.4266 16.5736 29.2018 15.3835 29.2018 13.5811C29.2018 12.1551 29.9928 11.124 31.4953 10.6071C32.3075 10.3288 33.1778 10.2493 35.7676 10.191V9.71387C35.7676 8.74376 35.5295 8.0281 35.0957 7.63316C34.7597 7.33629 34.3047 7.17726 33.8286 7.17726C32.7995 7.17726 32.2069 7.79219 31.9503 9.09893C31.8525 9.47532 31.5932 9.65556 31.1594 9.63436H30.2679C29.7944 9.63436 29.5351 9.41701 29.5351 9.04062C29.5351 8.78351 29.6727 8.38593 29.8922 8.00954C30.2679 7.37605 30.9213 6.85919 31.7308 6.54377C32.2837 6.32642 32.9371 6.22569 33.8074 6.22569C34.9952 6.22569 35.8047 6.40328 36.4766 6.77967C37.5056 7.35485 38.0188 8.34617 38.0188 9.67411V15.6406C38.04 16.1946 37.7808 16.4543 37.2279 16.4331H36.556C36.0031 16.4543 35.7438 16.1946 35.765 15.6406V15.0071H35.7676ZM35.7676 11.1213C33.8286 11.2592 33.2757 11.3784 32.5429 11.7946C31.99 12.1312 31.6514 12.8257 31.6514 13.6182C31.6514 14.689 32.1858 15.3835 33.0376 15.3835C33.8682 15.3835 34.9555 14.7685 35.7676 13.8567V11.1213Z" fill="white"/>
<path d="M43.0498 8.80184C43.7614 7.49244 44.3169 6.93847 45.3248 6.56208C45.7586 6.3845 46.4517 6.24401 46.8671 6.24401C47.2639 6.24401 47.4411 6.46136 47.4411 6.87751V7.74955C47.4411 8.24521 47.2242 8.4228 46.6104 8.38304C45.9385 8.4016 45.3248 8.50232 44.928 8.66135C44.0577 8.95822 43.1476 10.0291 43.0498 10.8799V15.6351C43.0709 16.189 42.8117 16.4488 42.2588 16.4276H41.4863C40.9335 16.4488 40.6742 16.189 40.6954 15.6351V7.17702C40.6769 6.62305 40.9335 6.36329 41.4863 6.3845H42.2588C42.8117 6.36329 43.0709 6.62305 43.0498 7.17702V8.80184Z" fill="white"/>
<path d="M51.4569 15.64C51.4781 16.194 51.2189 16.4537 50.666 16.4325H49.8935C49.338 16.4537 49.0814 16.194 49.1026 15.64V1.98416C49.0814 1.43018 49.3406 1.17042 49.8935 1.19163H50.666C51.2189 1.17042 51.4781 1.43018 51.4569 1.98416V10.5668L56.581 6.46365C56.798 6.26486 56.8985 6.2251 57.0572 6.2251C57.3932 6.2251 57.6498 6.50341 57.6498 6.84004C57.6498 7.05739 57.5704 7.19787 57.3138 7.39401L53.5336 10.4289L58.282 15.799C58.3799 15.9183 58.4196 15.9978 58.4196 16.0773C58.4196 16.2947 58.2609 16.4352 57.9831 16.4352H56.4805C55.8271 16.4352 55.6499 16.3557 55.2134 15.86L51.4543 11.5395V15.64H51.4569Z" fill="white"/>
<path d="M70.4088 15.6398C70.4299 16.1937 70.1707 16.4535 69.6178 16.4323H68.6496C68.0967 16.4535 67.8374 16.1937 67.8586 15.6398V2.6174H63.4884C62.9938 2.6174 62.716 2.37884 62.716 1.98391C62.716 1.58632 62.9938 1.35042 63.4884 1.35042H74.7631C75.2789 1.35042 75.554 1.58897 75.554 1.98391C75.554 2.38149 75.2763 2.6174 74.7631 2.6174H70.4114V15.6398H70.4088Z" fill="white"/>
<path d="M84.5718 11.3996C84.5718 14.4717 82.5533 16.5922 79.6064 16.5922C76.6383 16.5922 74.641 14.4717 74.641 11.3201C74.641 8.30641 76.6991 6.22569 79.6857 6.22569C82.5348 6.22569 84.5718 8.38593 84.5718 11.3996ZM77.789 8.36737C77.3737 9.12014 77.1568 10.13 77.1568 11.4182C77.1568 12.6878 77.3737 13.6977 77.789 14.4505C78.2043 15.1635 78.9159 15.6406 79.609 15.6406C81.0719 15.6406 82.0613 13.976 82.0613 11.4792C82.0613 10.2307 81.8232 9.08038 81.4291 8.36737C81.0322 7.63316 80.3021 7.17726 79.5693 7.17726C78.9159 7.17726 78.1832 7.65436 77.789 8.36737Z" fill="white"/>
<path d="M91.3598 15.7992C91.2223 16.2763 90.9842 16.4327 90.508 16.4327H90.0715C89.6165 16.4327 89.3785 16.2551 89.2409 15.778L86.5902 7.17681C86.5505 7.03898 86.5294 6.91971 86.5294 6.85874C86.5294 6.58043 86.786 6.38429 87.1828 6.38429H88.0743C88.5875 6.38429 88.8071 6.54332 88.9446 7.03898L90.8837 13.3421L92.9815 7.02043C93.1402 6.54597 93.3571 6.38694 93.8518 6.38694H94.328C94.8041 6.38694 95.0211 6.54597 95.1798 7.02043L97.3172 13.3421L99.3145 6.82163C99.4521 6.42405 99.6505 6.24646 99.9679 6.24646C100.304 6.24646 100.582 6.50356 100.582 6.82163C100.582 6.91971 100.56 7.03898 100.521 7.15826L97.8701 15.7806C97.7326 16.2577 97.4945 16.4353 97.0395 16.4353H96.5845C96.1295 16.4353 95.8914 16.2763 95.7538 15.8018L93.5396 9.28138L91.3598 15.7992Z" fill="white"/>
<path d="M16.9132 34.1011V24.4795C16.8815 23.5836 17.2968 23.1701 18.1883 23.2019H19.6882C20.5824 23.1701 20.9951 23.5862 20.9633 24.4795V46.5032C20.9951 47.3991 20.5797 47.8153 19.6882 47.7808H18.1883C17.2942 47.8126 16.8815 47.3965 16.9132 46.5032V36.1474H5.04606V46.5032C5.07781 47.3991 4.66248 47.8153 3.77099 47.7808H2.27106C1.37693 47.8126 0.961599 47.3965 0.995989 46.5032V24.4795C0.964245 23.5836 1.37957 23.1701 2.27106 23.2019H3.77099C4.66513 23.1701 5.04606 23.5862 5.04606 24.4795V34.1011H16.9132Z" fill="white"/>
<path d="M29.6084 41.3895L27.2169 47.1122C26.963 47.7509 26.6429 48.0081 26.1006 48.0081C25.5583 48.0081 25.0477 47.5601 25.0477 47.0803C25.0477 46.8895 25.1112 46.6642 25.2065 46.4098L34.4256 24.1925C34.7457 23.4583 35.0949 23.2012 35.862 23.2012H36.69C37.4546 23.2012 37.8064 23.4238 38.1265 24.1925L47.4435 46.537C47.5387 46.7596 47.6022 46.9531 47.6022 47.0803C47.6022 47.4965 47.2187 47.7828 46.6446 47.7828H44.6976C43.8352 47.8146 43.486 47.5601 43.1977 46.7914L40.9967 41.3895H29.6084ZM35.3515 27.5481L30.4708 39.3433H40.1687L35.3515 27.5481Z" fill="white"/>
<path d="M69.6778 46.5649C69.7731 46.7584 69.8366 46.9493 69.8366 47.0765C69.8366 47.5244 69.4847 47.7789 68.9424 47.7789H66.8684C66.0061 47.7789 65.6886 47.588 65.2733 46.7876L60.0725 36.6226H55.0648V46.5013C55.0965 47.3972 54.6812 47.8133 53.7897 47.7789H52.2898C51.3956 47.8107 50.9803 47.3946 51.0147 46.5013V26.2031C50.8877 24.4139 51.9723 23.3272 53.8214 23.4544H60.9031C63.4242 23.4544 65.0511 23.7751 66.4214 24.5412C68.1753 25.5325 69.1329 27.4197 69.1329 29.8794C69.1329 32.4055 68.1435 34.3563 66.3896 35.345C65.7838 35.6657 65.305 35.8565 64.3157 36.1454L69.6778 46.5649ZM59.755 34.7062C61.3502 34.7062 62.3713 34.4835 63.1676 33.972C64.2839 33.2377 64.9214 31.7985 64.9214 29.9113C64.9214 28.5356 64.6014 27.3852 63.9956 26.651C63.3263 25.7869 62.0803 25.3734 60.2947 25.3734H56.3398C55.4457 25.3416 55.0304 25.7578 55.0648 26.651V34.7062H59.755Z" fill="white"/>
<path d="M93.3807 38.863C93.3807 42.5393 92.0078 45.2244 89.3941 46.7273C87.8307 47.6232 86.0768 48.0048 83.4605 48.0048C79.7914 48.0048 77.4317 47.1407 75.5482 45.1263C74.08 43.5598 73.4107 41.5772 73.4107 38.8603V24.4755C73.379 23.5796 73.7943 23.1662 74.6858 23.198H76.1857C77.0799 23.1662 77.4926 23.5823 77.4608 24.4755V38.8921C77.4608 41.5135 78.1301 43.4326 79.5031 44.6465C80.6194 45.6697 81.8945 46.0858 83.9685 46.0858C88.627 46.0858 91.1798 43.4962 91.1798 38.7331V24.3165C91.1798 23.4524 91.5951 22.9727 92.2961 22.9727C92.9971 22.9727 93.3807 23.4524 93.3807 24.3165V38.863Z" fill="white"/>
<path d="M101.705 46.6649C101.705 47.529 101.322 48.0088 100.621 48.0088C99.8881 48.0088 99.5045 47.529 99.5045 46.6649V24.4795C99.4727 23.5836 99.8881 23.1701 100.78 23.2019H102.279C103.142 23.2019 103.459 23.3927 103.811 24.1932L112.393 43.3411L120.337 24.1932C120.625 23.4246 120.974 23.2019 121.837 23.2019H123.752C124.646 23.1701 125.059 23.5862 125.027 24.4795V46.5032C125.059 47.3991 124.644 47.8153 123.752 47.7808H122.347C121.453 47.8126 121.041 47.3965 121.072 46.5032V27.9306L113.255 46.7895C112.969 47.5237 112.586 47.7808 111.819 47.7808H111.02C110.221 47.7808 109.872 47.5582 109.552 46.7895L101.703 29.2718V46.6649H101.705Z" fill="white"/>
<path d="M130.482 24.4795C130.45 23.5836 130.866 23.1701 131.757 23.2019H133.32C134.215 23.1701 134.627 23.5862 134.595 24.4795V46.5032C134.627 47.3991 134.212 47.8153 133.32 47.7808H131.757C130.863 47.8126 130.45 47.3965 130.482 46.5032V24.4795Z" fill="white"/>
<path d="M104.912 11.6965C104.952 14.1536 105.804 15.6406 107.129 15.6406C108.039 15.6406 108.772 14.8878 109.007 13.7189C109.068 13.2418 109.325 13.0245 109.82 13.0457H110.632C111.087 13.0457 111.343 13.263 111.343 13.6394C111.343 13.7772 111.282 14.0158 111.185 14.2941C110.611 15.7201 109.108 16.5922 107.209 16.5922C105.725 16.5922 104.616 16.176 103.825 15.2854C102.973 14.3524 102.5 12.9661 102.5 11.4394C102.5 9.75363 103.074 8.20834 104.042 7.33629C104.815 6.60208 105.902 6.22569 107.127 6.22569C109.322 6.22569 110.785 7.33629 111.28 9.33749C111.399 9.83315 111.478 10.3686 111.478 10.6654C111.478 11.3599 111.081 11.6965 110.312 11.6965H104.912ZM108.69 10.5859C108.947 10.5859 109.087 10.4666 109.087 10.2678C109.087 9.98953 108.986 9.37725 108.888 8.9399C108.571 7.77099 108.018 7.1746 107.166 7.1746C105.881 7.1746 105.148 8.30376 104.952 10.5833H108.69V10.5859Z" fill="white"/>
<path d="M116.642 8.80184C117.353 7.49244 117.909 6.93847 118.917 6.56208C119.351 6.3845 120.044 6.24401 120.459 6.24401C120.856 6.24401 121.033 6.46136 121.033 6.87751V7.74955C121.033 8.24521 120.816 8.4228 120.202 8.38304C119.531 8.4016 118.917 8.50232 118.52 8.66135C117.65 8.95822 116.74 10.0291 116.642 10.8799V15.6351C116.663 16.189 116.404 16.4488 115.851 16.4276H115.078C114.526 16.4488 114.266 16.189 114.287 15.6351V7.17702C114.269 6.62305 114.526 6.36329 115.078 6.3845H115.851C116.404 6.36329 116.663 6.62305 116.642 7.17702V8.80184Z" fill="white"/>
<path d="M20.6543 15.6398C20.6754 16.1938 20.4162 16.4535 19.8633 16.4323H18.9348C18.3819 16.4535 18.1226 16.1938 18.1438 15.6398V3.07335C18.0644 1.9442 18.7364 1.27095 19.8845 1.34781H24.2943C25.6011 1.34781 26.609 1.56516 27.3788 1.98131C28.5057 2.636 29.1592 3.88443 29.1592 5.44828C29.1592 8.20224 27.4979 9.64946 24.2917 9.64946H20.6516V15.6398H20.6543ZM23.8393 8.46465C24.8684 8.46465 25.6778 8.10682 26.0535 7.49453C26.3709 6.99887 26.5482 6.26466 26.5482 5.49334C26.5482 4.71937 26.3709 4.00636 26.0535 3.5107C25.6382 2.8772 24.8869 2.54058 23.8393 2.54058H21.4452C20.8923 2.51938 20.6331 2.77913 20.6543 3.33311V8.4673H23.8393V8.46465Z" stroke="white" stroke-miterlimit="10"/>
<path d="M35.7676 15.0071C34.5799 16.1177 33.572 16.5736 32.2863 16.5736C30.4266 16.5736 29.2018 15.3835 29.2018 13.5811C29.2018 12.1551 29.9928 11.124 31.4953 10.6071C32.3075 10.3288 33.1778 10.2493 35.7676 10.191V9.71387C35.7676 8.74376 35.5295 8.0281 35.0957 7.63316C34.7597 7.33629 34.3047 7.17726 33.8286 7.17726C32.7995 7.17726 32.2069 7.79219 31.9503 9.09893C31.8525 9.47532 31.5932 9.65556 31.1594 9.63436H30.2679C29.7944 9.63436 29.5351 9.41701 29.5351 9.04062C29.5351 8.78351 29.6727 8.38593 29.8922 8.00954C30.2679 7.37605 30.9213 6.85919 31.7308 6.54377C32.2837 6.32642 32.9371 6.22569 33.8074 6.22569C34.9952 6.22569 35.8047 6.40328 36.4766 6.77967C37.5056 7.35485 38.0188 8.34617 38.0188 9.67411V15.6406C38.04 16.1946 37.7808 16.4543 37.2279 16.4331H36.556C36.0031 16.4543 35.7438 16.1946 35.765 15.6406V15.0071H35.7676ZM35.7676 11.1213C33.8286 11.2592 33.2757 11.3784 32.5429 11.7946C31.99 12.1312 31.6514 12.8257 31.6514 13.6182C31.6514 14.689 32.1858 15.3835 33.0376 15.3835C33.8682 15.3835 34.9555 14.7685 35.7676 13.8567V11.1213Z" stroke="white" stroke-miterlimit="10"/>
<path d="M43.0498 8.80184C43.7614 7.49244 44.3169 6.93847 45.3248 6.56208C45.7586 6.3845 46.4517 6.24401 46.8671 6.24401C47.2639 6.24401 47.4411 6.46136 47.4411 6.87751V7.74955C47.4411 8.24521 47.2242 8.4228 46.6104 8.38304C45.9385 8.4016 45.3248 8.50232 44.928 8.66135C44.0577 8.95822 43.1476 10.0291 43.0498 10.8799V15.6351C43.0709 16.189 42.8117 16.4488 42.2588 16.4276H41.4863C40.9335 16.4488 40.6742 16.189 40.6954 15.6351V7.17702C40.6769 6.62305 40.9335 6.36329 41.4863 6.3845H42.2588C42.8117 6.36329 43.0709 6.62305 43.0498 7.17702V8.80184Z" stroke="white" stroke-miterlimit="10"/>
<path d="M51.4569 15.64C51.4781 16.194 51.2189 16.4537 50.666 16.4325H49.8935C49.338 16.4537 49.0814 16.194 49.1026 15.64V1.98416C49.0814 1.43018 49.3406 1.17042 49.8935 1.19163H50.666C51.2189 1.17042 51.4781 1.43018 51.4569 1.98416V10.5668L56.581 6.46365C56.798 6.26486 56.8985 6.2251 57.0572 6.2251C57.3932 6.2251 57.6498 6.50341 57.6498 6.84004C57.6498 7.05739 57.5704 7.19787 57.3138 7.39401L53.5336 10.4289L58.282 15.799C58.3799 15.9183 58.4196 15.9978 58.4196 16.0773C58.4196 16.2947 58.2609 16.4352 57.9831 16.4352H56.4805C55.8271 16.4352 55.6499 16.3557 55.2134 15.86L51.4543 11.5395V15.64H51.4569Z" stroke="white" stroke-miterlimit="10"/>
<path d="M70.4088 15.6398C70.4299 16.1937 70.1707 16.4535 69.6178 16.4323H68.6496C68.0967 16.4535 67.8374 16.1937 67.8586 15.6398V2.6174H63.4884C62.9938 2.6174 62.716 2.37884 62.716 1.98391C62.716 1.58632 62.9938 1.35042 63.4884 1.35042H74.7631C75.2789 1.35042 75.554 1.58897 75.554 1.98391C75.554 2.38149 75.2763 2.6174 74.7631 2.6174H70.4114V15.6398H70.4088Z" stroke="white" stroke-miterlimit="10"/>
<path d="M84.5718 11.3996C84.5718 14.4717 82.5533 16.5922 79.6064 16.5922C76.6383 16.5922 74.641 14.4717 74.641 11.3201C74.641 8.30641 76.6991 6.22569 79.6857 6.22569C82.5348 6.22569 84.5718 8.38593 84.5718 11.3996ZM77.789 8.36737C77.3737 9.12014 77.1568 10.13 77.1568 11.4182C77.1568 12.6878 77.3737 13.6977 77.789 14.4505C78.2043 15.1635 78.9159 15.6406 79.609 15.6406C81.0719 15.6406 82.0613 13.976 82.0613 11.4792C82.0613 10.2307 81.8232 9.08038 81.4291 8.36737C81.0322 7.63316 80.3021 7.17726 79.5693 7.17726C78.9159 7.17726 78.1832 7.65436 77.789 8.36737Z" stroke="white" stroke-miterlimit="10"/>
<path d="M91.3598 15.7992C91.2223 16.2763 90.9842 16.4327 90.508 16.4327H90.0715C89.6165 16.4327 89.3785 16.2551 89.2409 15.778L86.5902 7.17681C86.5505 7.03898 86.5294 6.91971 86.5294 6.85874C86.5294 6.58043 86.786 6.38429 87.1828 6.38429H88.0743C88.5875 6.38429 88.8071 6.54332 88.9446 7.03898L90.8837 13.3421L92.9815 7.02043C93.1402 6.54597 93.3571 6.38694 93.8518 6.38694H94.328C94.8041 6.38694 95.0211 6.54597 95.1798 7.02043L97.3172 13.3421L99.3145 6.82163C99.4521 6.42405 99.6505 6.24646 99.9679 6.24646C100.304 6.24646 100.582 6.50356 100.582 6.82163C100.582 6.91971 100.56 7.03898 100.521 7.15826L97.8701 15.7806C97.7326 16.2577 97.4945 16.4353 97.0395 16.4353H96.5845C96.1295 16.4353 95.8914 16.2763 95.7538 15.8018L93.5396 9.28138L91.3598 15.7992Z" stroke="white" stroke-miterlimit="10"/>
<path d="M16.9132 34.1011V24.4795C16.8815 23.5836 17.2968 23.1701 18.1883 23.2019H19.6882C20.5824 23.1701 20.9951 23.5862 20.9633 24.4795V46.5032C20.9951 47.3991 20.5797 47.8153 19.6882 47.7808H18.1883C17.2942 47.8126 16.8815 47.3965 16.9132 46.5032V36.1474H5.04606V46.5032C5.07781 47.3991 4.66248 47.8153 3.77099 47.7808H2.27106C1.37693 47.8126 0.961599 47.3965 0.995989 46.5032V24.4795C0.964245 23.5836 1.37957 23.1701 2.27106 23.2019H3.77099C4.66513 23.1701 5.04606 23.5862 5.04606 24.4795V34.1011H16.9132Z" stroke="white" stroke-miterlimit="10"/>
<path d="M29.6084 41.3895L27.2169 47.1122C26.963 47.7509 26.6429 48.0081 26.1006 48.0081C25.5583 48.0081 25.0477 47.5601 25.0477 47.0803C25.0477 46.8895 25.1112 46.6642 25.2065 46.4098L34.4256 24.1925C34.7457 23.4583 35.0949 23.2012 35.862 23.2012H36.69C37.4546 23.2012 37.8064 23.4238 38.1265 24.1925L47.4435 46.537C47.5387 46.7596 47.6022 46.9531 47.6022 47.0803C47.6022 47.4965 47.2187 47.7828 46.6446 47.7828H44.6976C43.8352 47.8146 43.486 47.5601 43.1977 46.7914L40.9967 41.3895H29.6084ZM35.3515 27.5481L30.4708 39.3433H40.1687L35.3515 27.5481Z" stroke="white" stroke-miterlimit="10"/>
<path d="M69.6778 46.5649C69.7731 46.7584 69.8366 46.9493 69.8366 47.0765C69.8366 47.5244 69.4847 47.7789 68.9424 47.7789H66.8684C66.0061 47.7789 65.6886 47.588 65.2733 46.7876L60.0725 36.6226H55.0648V46.5013C55.0965 47.3972 54.6812 47.8133 53.7897 47.7789H52.2898C51.3956 47.8107 50.9803 47.3946 51.0147 46.5013V26.2031C50.8877 24.4139 51.9723 23.3272 53.8214 23.4544H60.9031C63.4242 23.4544 65.0511 23.7751 66.4214 24.5412C68.1753 25.5325 69.1329 27.4197 69.1329 29.8794C69.1329 32.4055 68.1435 34.3563 66.3896 35.345C65.7838 35.6657 65.305 35.8565 64.3157 36.1454L69.6778 46.5649ZM59.755 34.7062C61.3502 34.7062 62.3713 34.4835 63.1676 33.972C64.2839 33.2377 64.9214 31.7985 64.9214 29.9113C64.9214 28.5356 64.6014 27.3852 63.9956 26.651C63.3263 25.7869 62.0803 25.3734 60.2947 25.3734H56.3398C55.4457 25.3416 55.0304 25.7578 55.0648 26.651V34.7062H59.755Z" stroke="white" stroke-miterlimit="10"/>
<path d="M93.3807 38.863C93.3807 42.5393 92.0078 45.2244 89.3941 46.7273C87.8307 47.6232 86.0768 48.0048 83.4605 48.0048C79.7914 48.0048 77.4317 47.1407 75.5482 45.1263C74.08 43.5598 73.4107 41.5772 73.4107 38.8603V24.4755C73.379 23.5796 73.7943 23.1662 74.6858 23.198H76.1857C77.0799 23.1662 77.4926 23.5823 77.4608 24.4755V38.8921C77.4608 41.5135 78.1301 43.4326 79.5031 44.6465C80.6194 45.6697 81.8945 46.0858 83.9685 46.0858C88.627 46.0858 91.1798 43.4962 91.1798 38.7331V24.3165C91.1798 23.4524 91.5951 22.9727 92.2961 22.9727C92.9971 22.9727 93.3807 23.4524 93.3807 24.3165V38.863Z" stroke="white" stroke-miterlimit="10"/>
<path d="M101.705 46.6649C101.705 47.529 101.322 48.0088 100.621 48.0088C99.8881 48.0088 99.5045 47.529 99.5045 46.6649V24.4795C99.4727 23.5836 99.8881 23.1701 100.78 23.2019H102.279C103.142 23.2019 103.459 23.3927 103.811 24.1932L112.393 43.3411L120.337 24.1932C120.625 23.4246 120.974 23.2019 121.837 23.2019H123.752C124.646 23.1701 125.059 23.5862 125.027 24.4795V46.5032C125.059 47.3991 124.644 47.8153 123.752 47.7808H122.347C121.453 47.8126 121.041 47.3965 121.072 46.5032V27.9306L113.255 46.7895C112.969 47.5237 112.586 47.7808 111.819 47.7808H111.02C110.221 47.7808 109.872 47.5582 109.552 46.7895L101.703 29.2718V46.6649H101.705Z" stroke="white" stroke-miterlimit="10"/>
<path d="M130.482 24.4795C130.45 23.5836 130.866 23.1701 131.757 23.2019H133.32C134.215 23.1701 134.627 23.5862 134.595 24.4795V46.5032C134.627 47.3991 134.212 47.8153 133.32 47.7808H131.757C130.863 47.8126 130.45 47.3965 130.482 46.5032V24.4795Z" stroke="white" stroke-miterlimit="10"/>
<path d="M104.912 11.6965C104.952 14.1536 105.804 15.6406 107.129 15.6406C108.039 15.6406 108.772 14.8878 109.007 13.7189C109.068 13.2418 109.325 13.0245 109.82 13.0457H110.632C111.087 13.0457 111.343 13.263 111.343 13.6394C111.343 13.7772 111.282 14.0158 111.185 14.2941C110.611 15.7201 109.108 16.5922 107.209 16.5922C105.725 16.5922 104.616 16.176 103.825 15.2854C102.973 14.3524 102.5 12.9661 102.5 11.4394C102.5 9.75363 103.074 8.20834 104.042 7.33629C104.815 6.60208 105.902 6.22569 107.127 6.22569C109.322 6.22569 110.785 7.33629 111.28 9.33749C111.399 9.83315 111.478 10.3686 111.478 10.6654C111.478 11.3599 111.081 11.6965 110.312 11.6965H104.912ZM108.69 10.5859C108.947 10.5859 109.087 10.4666 109.087 10.2678C109.087 9.98953 108.986 9.37725 108.888 8.9399C108.571 7.77099 108.018 7.1746 107.166 7.1746C105.881 7.1746 105.148 8.30376 104.952 10.5833H108.69V10.5859Z" stroke="white" stroke-miterlimit="10"/>
<path d="M116.642 8.80184C117.353 7.49244 117.909 6.93847 118.917 6.56208C119.351 6.3845 120.044 6.24401 120.459 6.24401C120.856 6.24401 121.033 6.46136 121.033 6.87751V7.74955C121.033 8.24521 120.816 8.4228 120.202 8.38304C119.531 8.4016 118.917 8.50232 118.52 8.66135C117.65 8.95822 116.74 10.0291 116.642 10.8799V15.6351C116.663 16.189 116.404 16.4488 115.851 16.4276H115.078C114.526 16.4488 114.266 16.189 114.287 15.6351V7.17702C114.269 6.62305 114.526 6.36329 115.078 6.3845H115.851C116.404 6.36329 116.663 6.62305 116.642 7.17702V8.80184Z" stroke="white" stroke-miterlimit="10"/>
</svg>
