<svg xmlns="http://www.w3.org/2000/svg" width="270" height="83" fill="none"><g clip-path="url(#a)"><path fill="#fff" d="M80.676 53.213a41.396 41.396 0 0 0 1.68-11.713C82.356 18.718 63.974.246 41.301.246S.245 18.718.245 41.5c0 4.069.59 7.999 1.68 11.713H1.92l.017.037c5.035 17.06 20.75 29.504 39.361 29.504 18.611 0 34.327-12.445 39.362-29.504l.017-.037ZM41.3 2.555c21.405 0 38.758 17.437 38.758 38.945 0 4.065-.62 7.985-1.772 11.67-1.999.13-5.293.653-10.107 2.325-2.583.897-4.894 1.803-7.131 2.68-3.808 1.49-7.162 2.804-10.761 3.66a11.514 11.514 0 0 0-.437-.563c-3.052-3.68-6.225-11.042 0-16.07 6.226-5.03 14.774-6.503 20.513-11.165 5.74-4.661 2.197-10.796 2.197-10.796s.49 1.106-3.418 2.575c-3.908 1.473-18.681 3.314-23.075 4.294-4.395.981-4.764 3.19-4.764 3.19s-.366-2.209-4.763-3.19c-4.395-.98-19.171-2.82-23.076-4.294-3.908-1.473-3.418-2.575-3.418-2.575s-3.542 6.135 2.197 10.796c5.74 4.662 14.287 6.135 20.513 11.164 6.226 5.03 3.053 12.39 0 16.072a11.11 11.11 0 0 0-.436.562c-3.6-.856-6.954-2.17-10.761-3.66-2.238-.877-4.552-1.783-7.132-2.68C9.614 53.827 6.32 53.301 4.32 53.17A39.086 39.086 0 0 1 2.55 41.5C2.543 19.992 19.896 2.555 41.3 2.555Zm0 77.89c-11.936 0-22.613-5.423-29.721-13.951.792.31 1.748.684 2.915 1.136 1.198.465 2.318.916 3.402 1.355 6.615 2.673 11.838 4.786 23.404 4.786v-3.654c-10.862 0-15.552-1.898-22.046-4.523-1.097-.442-2.227-.9-3.452-1.375-3.14-1.217-5.468-2.036-6.917-2.437-.483-.135-.58.016-.543.215a39.017 39.017 0 0 1-2.64-5.073c1.476.216 3.86.752 7.53 2.023 2.513.873 4.794 1.766 6.998 2.629 6.786 2.66 12.65 4.955 21.066 4.955 8.417 0 14.28-2.296 21.067-4.955 2.204-.863 4.485-1.756 6.997-2.63 3.67-1.273 6.055-1.81 7.531-2.022a38.61 38.61 0 0 1-2.64 5.073c.037-.202-.06-.35-.543-.215-1.45.4-3.778 1.22-6.917 2.437-1.225.475-2.355.933-3.452 1.375-6.495 2.626-11.184 4.523-22.046 4.523v3.654c11.566 0 16.79-2.113 23.404-4.786A259.14 259.14 0 0 1 68.1 67.63a604.63 604.63 0 0 1 2.895-1.113C63.893 75.032 53.226 80.445 41.3 80.445Z"/><path stroke="#fff" stroke-miterlimit="10" stroke-width="1.462" d="M41.297 66.53c-8.416 0-14.28-2.295-21.066-4.954-2.204-.863-4.485-1.756-6.997-2.63-3.67-1.27-6.055-1.806-7.531-2.022a39.017 39.017 0 0 0 2.64 5.073c-.037-.199.06-.35.543-.215 1.45.4 3.778 1.22 6.917 2.437 1.225.475 2.355.933 3.452 1.375 6.494 2.626 11.184 4.523 22.046 4.523v3.654c-11.567 0-16.79-2.113-23.405-4.786a259.14 259.14 0 0 0-3.401-1.355 720.718 720.718 0 0 1-2.915-1.136c7.108 8.528 17.785 13.951 29.72 13.951 11.926 0 22.593-5.413 29.695-13.928-.779.297-1.728.661-2.895 1.113a259.14 259.14 0 0 0-3.402 1.355c-6.615 2.673-11.838 4.786-23.404 4.786v-3.654c10.862 0 15.552-1.898 22.046-4.523 1.097-.442 2.227-.9 3.452-1.375 3.14-1.217 5.467-2.036 6.917-2.437.483-.135.58.013.543.215a38.61 38.61 0 0 0 2.64-5.073c-1.476.213-3.861.749-7.53 2.023-2.513.873-4.794 1.766-6.998 2.629-6.786 2.66-12.65 4.955-21.067 4.955Zm0 0v-2.379m39.379-10.938a41.396 41.396 0 0 0 1.68-11.713C82.356 18.718 63.974.246 41.301.246S.245 18.718.245 41.5c0 4.069.59 7.999 1.68 11.713H1.92l.017.037c5.035 17.06 20.75 29.504 39.361 29.504 18.611 0 34.327-12.445 39.362-29.504l.017-.037ZM41.3 2.555c21.405 0 38.758 17.437 38.758 38.945 0 4.065-.62 7.985-1.772 11.67-1.999.13-5.293.653-10.107 2.325-2.583.897-4.894 1.803-7.131 2.68-3.808 1.49-7.162 2.804-10.761 3.66a11.514 11.514 0 0 0-.437-.563c-3.052-3.68-6.225-11.042 0-16.07 6.226-5.03 14.774-6.503 20.513-11.165 5.74-4.661 2.197-10.796 2.197-10.796s.49 1.106-3.418 2.575c-3.908 1.473-18.681 3.314-23.075 4.294-4.395.981-4.764 3.19-4.764 3.19s-.366-2.209-4.763-3.19c-4.395-.98-19.171-2.82-23.076-4.294-3.908-1.473-3.418-2.575-3.418-2.575s-3.542 6.135 2.197 10.796c5.74 4.662 14.287 6.135 20.513 11.164 6.226 5.03 3.053 12.39 0 16.072a11.11 11.11 0 0 0-.436.562c-3.6-.856-6.954-2.17-10.761-3.66-2.238-.877-4.552-1.783-7.132-2.68C9.614 53.827 6.32 53.301 4.32 53.17A39.086 39.086 0 0 1 2.55 41.5C2.543 19.992 19.896 2.555 41.3 2.555Z"/><path fill="#fff" stroke="#fff" stroke-miterlimit="10" d="M120.601 56.328V44.093c-.04-1.14.486-1.666 1.617-1.625h1.902c1.134-.04 1.657.489 1.617 1.625V72.1c.04 1.14-.487 1.668-1.617 1.624h-1.902c-1.134.04-1.657-.488-1.617-1.624V58.93h-15.048V72.1c.04 1.14-.487 1.668-1.617 1.624h-1.902c-1.134.04-1.661-.488-1.617-1.624V44.093c-.04-1.14.486-1.666 1.617-1.625h1.902c1.134-.04 1.617.489 1.617 1.625v12.235h15.048ZM136.699 65.597l-3.032 7.278c-.322.812-.728 1.14-1.416 1.14s-1.335-.57-1.335-1.18c0-.243.081-.53.201-.853l11.691-28.254c.406-.933.848-1.26 1.821-1.26h1.05c.97 0 1.416.283 1.822 1.26l11.814 28.415c.121.284.201.53.201.691 0 .53-.486.894-1.214.894h-2.469c-1.093.04-1.536-.283-1.902-1.261l-2.791-6.87h-14.441Zm7.283-17.601-6.189 15h12.297l-6.108-15ZM187.51 72.18c.121.246.201.489.201.65 0 .57-.446.894-1.134.894h-2.63c-1.093 0-1.496-.243-2.022-1.26l-6.595-12.927h-6.35v12.562c.04 1.14-.487 1.669-1.617 1.625h-1.902c-1.134.04-1.661-.489-1.617-1.625V46.286c-.161-2.275 1.214-3.657 3.559-3.495h8.98c3.197 0 5.26.408 6.997 1.382 2.224 1.26 3.439 3.66 3.439 6.789 0 3.212-1.255 5.693-3.479 6.95-.768.408-1.375.65-2.63 1.018l6.8 13.25ZM174.927 57.1c2.023 0 3.318-.283 4.327-.934 1.416-.934 2.224-2.764 2.224-5.164 0-1.75-.406-3.212-1.174-4.146-.848-1.099-2.428-1.625-4.693-1.625h-5.015c-1.133-.04-1.66.49-1.616 1.625V57.1h5.947ZM217.566 62.385c0 4.675-1.741 8.09-5.055 10-1.983 1.14-4.207 1.626-7.524 1.626-4.653 0-7.645-1.1-10.034-3.661-1.861-1.992-2.71-4.513-2.71-7.968V44.089c-.04-1.14.486-1.665 1.617-1.625h1.902c1.134-.04 1.657.489 1.617 1.625v18.333c0 3.334.848 5.774 2.589 7.318 1.416 1.301 3.033 1.83 5.663 1.83 5.907 0 9.144-3.293 9.144-9.35V43.887c0-1.1.527-1.71 1.416-1.71.889 0 1.375.61 1.375 1.71v18.498ZM228.123 72.305c0 1.1-.487 1.71-1.376 1.71-.929 0-1.415-.61-1.415-1.71V44.093c-.041-1.14.486-1.666 1.617-1.625h1.902c1.093 0 1.496.243 1.942 1.26l10.882 24.35 10.073-24.35c.366-.977.809-1.26 1.902-1.26h2.429c1.134-.04 1.657.489 1.617 1.625V72.1c.04 1.14-.486 1.668-1.617 1.624h-1.781c-1.134.04-1.657-.488-1.617-1.624V48.48l-9.913 23.983c-.362.933-.848 1.26-1.821 1.26h-1.013c-1.013 0-1.456-.283-1.862-1.26l-9.953-22.277v22.118h.004ZM264.613 44.093c-.04-1.14.486-1.666 1.617-1.625h1.982c1.134-.04 1.657.489 1.617 1.625V72.1c.04 1.14-.486 1.668-1.617 1.624h-1.982c-1.134.04-1.657-.488-1.617-1.624V44.093ZM125.344 32.85c.027.705-.302 1.035-1.003 1.008h-1.177c-.701.027-1.03-.303-1.003-1.008V16.87c-.101-1.436.751-2.292 2.207-2.195h5.592c1.657 0 2.935.277 3.911.806 1.429.833 2.258 2.42 2.258 4.409 0 3.502-2.107 5.343-6.172 5.343h-4.616v7.617h.003Zm4.039-9.124c1.305 0 2.331-.455 2.808-1.234.402-.63.627-1.564.627-2.545 0-.984-.225-1.89-.627-2.521-.527-.806-1.48-1.234-2.808-1.234h-3.036c-.701-.027-1.03.304-1.003 1.008v6.53h4.039v-.004ZM144.508 32.045c-1.506 1.412-2.784 1.992-4.414 1.992-2.358 0-3.911-1.513-3.911-3.805 0-1.814 1.003-3.125 2.908-3.782 1.03-.354 2.133-.455 5.417-.53v-.606c0-1.234-.301-2.144-.852-2.646-.426-.378-1.003-.58-1.606-.58-1.305 0-2.057.782-2.382 2.444-.124.478-.453.708-1.003.68h-1.131c-.6 0-.929-.276-.929-.754 0-.327.175-.833.453-1.312.476-.805 1.305-1.463 2.332-1.864.701-.276 1.529-.404 2.633-.404 1.506 0 2.532.226 3.384.704 1.305.732 1.956 1.992 1.956 3.681v7.588c.027.704-.302 1.034-1.003 1.008h-.852c-.701.026-1.03-.304-1.003-1.008v-.806h.003Zm0-4.941c-2.458.175-3.159.327-4.089.856-.701.428-1.13 1.311-1.13 2.319 0 1.362.677 2.245 1.758 2.245 1.053 0 2.432-.782 3.461-1.942v-3.478ZM153.743 24.154c.903-1.665 1.607-2.37 2.885-2.848.55-.226 1.429-.405 1.956-.405.503 0 .728.277.728.806v1.109c0 .63-.275.856-1.053.806-.853.023-1.631.151-2.134.353-1.104.378-2.258 1.74-2.382 2.822v6.047c.027.704-.302 1.035-1.003 1.008h-.979c-.701.027-1.03-.304-1.003-1.008V22.088c-.024-.705.302-1.035 1.003-1.008h.979c.701-.027 1.03.303 1.003 1.008v2.066ZM164.404 32.85c.027.705-.302 1.036-1.003 1.009h-.979c-.705.027-1.03-.304-1.003-1.008V15.485c-.027-.704.301-1.035 1.003-1.008h.979c.701-.027 1.03.303 1.003 1.008v10.914l6.498-5.218c.275-.252.402-.303.603-.303.427 0 .752.354.752.782 0 .276-.101.455-.426.704l-4.794 3.86 6.022 6.829c.124.152.174.253.174.354 0 .276-.201.455-.553.455h-1.906c-.828 0-1.053-.101-1.607-.732l-4.766-5.494v5.215h.003ZM188.436 32.851c.026.705-.302 1.035-1.003 1.008h-1.228c-.701.027-1.03-.303-1.003-1.008v-16.56h-5.542c-.627 0-.979-.303-.979-.806 0-.505.352-.805.979-.805h14.297c.654 0 1.003.303 1.003.805 0 .506-.352.806-1.003.806h-5.518v16.56h-.003ZM206.396 27.457c0 3.907-2.56 6.604-6.297 6.604-3.764 0-6.296-2.697-6.296-6.705 0-3.832 2.61-6.478 6.397-6.478 3.613 0 6.196 2.747 6.196 6.58Zm-8.601-3.855c-.527.957-.802 2.241-.802 3.88 0 1.614.275 2.898.802 3.855.526.907 1.429 1.514 2.307 1.514 1.856 0 3.11-2.117 3.11-5.292 0-1.588-.302-3.05-.802-3.957-.503-.934-1.429-1.514-2.358-1.514-.828 0-1.758.607-2.257 1.514ZM215.003 33.053c-.174.607-.476.806-1.08.806h-.553c-.577 0-.879-.226-1.054-.833l-3.361-10.938a1.772 1.772 0 0 1-.077-.404c0-.354.325-.604.829-.604h1.13c.651 0 .929.203 1.104.833l2.458 8.016 2.661-8.04c.201-.603.476-.805 1.103-.805h.604c.604 0 .879.202 1.08.806l2.711 8.039 2.532-8.292c.175-.506.426-.732.829-.732.426 0 .778.327.778.732 0 .124-.027.276-.077.428l-3.361 10.965c-.175.606-.477.832-1.054.832h-.577c-.577 0-.879-.202-1.053-.805l-2.808-8.292-2.764 8.288ZM232.188 27.835c.051 3.125 1.131 5.016 2.811 5.016 1.154 0 2.083-.958 2.382-2.444.077-.607.402-.883 1.03-.856h1.03c.577 0 .902.276.902.755 0 .175-.077.478-.201.832-.728 1.814-2.634 2.923-5.042 2.923-1.882 0-3.287-.53-4.29-1.662-1.081-1.187-1.681-2.95-1.681-4.89 0-2.145.728-4.11 1.956-5.219.979-.933 2.358-1.412 3.911-1.412 2.784 0 4.639 1.412 5.266 3.957.151.63.252 1.311.252 1.689 0 .883-.503 1.311-1.479 1.311h-6.847Zm4.79-1.412c.326 0 .504-.152.504-.405 0-.354-.128-1.132-.252-1.689-.403-1.486-1.104-2.244-2.184-2.244-1.63 0-2.559 1.436-2.807 4.334h4.739v.004ZM247.062 24.154c.903-1.665 1.607-2.37 2.885-2.848.55-.226 1.429-.405 1.956-.405.503 0 .728.277.728.806v1.109c0 .63-.275.856-1.054.806-.852.023-1.63.151-2.133.353-1.104.378-2.258 1.74-2.382 2.822v6.047c.027.704-.302 1.035-1.003 1.008h-.979c-.701.027-1.03-.304-1.003-1.008V22.088c-.024-.705.302-1.035 1.003-1.008h.979c.701-.027 1.03.303 1.003 1.008v2.066Z"/></g><defs><clipPath id="a"><path fill="#fff" d="M0 0h270v83H0z"/></clipPath></defs></svg>