<svg width="66" height="66" viewBox="0 0 66 66" fill="none" xmlns="http://www.w3.org/2000/svg">
<path d="M63.4507 42.0094C64.2998 39.1335 64.7556 36.0931 64.7556 32.9406C64.7556 15.3014 50.4823 1 32.8778 1C15.2732 1 1 15.3014 1 32.9406C1 36.0905 1.45841 39.1335 2.30491 42.0094C2.3023 42.0094 2.3023 42.0094 2.2997 42.0094L2.31272 42.0381C6.22224 55.246 18.4248 64.8812 32.8752 64.8812C47.3255 64.8812 59.5281 55.246 63.4376 42.0381L63.4507 42.0094ZM32.8778 2.78767C49.4978 2.78767 62.9714 16.2878 62.9714 32.9406C62.9714 36.0879 62.4896 39.1231 61.5962 41.9755C60.0438 42.0773 57.4861 42.4818 53.7485 43.7762C51.743 44.4704 49.9484 45.1724 48.2111 45.851C45.2549 47.0045 42.6503 48.0223 39.8555 48.6851C39.7566 48.5494 39.6446 48.4033 39.5169 48.2493C37.1467 45.3995 34.6828 39.6998 39.5169 35.8061C44.3511 31.9123 50.9876 30.7719 55.4441 27.1626C59.9006 23.5534 57.1501 18.8036 57.1501 18.8036C57.1501 18.8036 57.5304 19.6596 54.496 20.7975C51.4617 21.9379 39.991 23.3628 36.5789 24.1223C33.1669 24.8817 32.8804 26.5911 32.8804 26.5911C32.8804 26.5911 32.5965 24.8817 29.1818 24.1223C25.7698 23.3628 14.2965 21.9379 11.2648 20.7975C8.23039 19.657 8.61066 18.8036 8.61066 18.8036C8.61066 18.8036 5.8602 23.5534 10.3167 27.1626C14.7732 30.7719 21.4097 31.9123 26.2439 35.8061C31.078 39.6998 28.614 45.3995 26.2439 48.2493C26.1136 48.4059 26.0042 48.5494 25.9053 48.6851C23.1105 48.0223 20.5059 47.0045 17.5497 45.851C15.8124 45.1724 14.0152 44.4704 12.0123 43.7762C8.27467 42.4844 5.71694 42.0773 4.1646 41.9755C3.27122 39.1231 2.78937 36.0879 2.78937 32.9406C2.78416 16.2878 16.2578 2.78767 32.8778 2.78767ZM32.8778 63.0935C23.6106 63.0935 15.3201 58.8944 9.80097 52.2918C10.4157 52.5319 11.158 52.8216 12.0644 53.1713C12.9942 53.5314 13.8642 53.8811 14.7054 54.2204C19.8417 56.2899 23.8971 57.9262 32.8778 57.9262V55.0973C24.4441 55.0973 20.8028 53.628 15.7603 51.595C14.9086 51.2531 14.0308 50.8982 13.0802 50.5302C10.6423 49.5881 8.83466 48.9539 7.70947 48.6434C7.3344 48.539 7.25887 48.6564 7.28752 48.8104C6.51395 47.5603 5.82634 46.2476 5.2377 44.8827C6.38372 45.0498 8.2356 45.4647 11.085 46.4486C13.0359 47.1245 14.807 47.8161 16.5182 48.4842C21.7874 50.5433 26.3402 52.3205 32.8752 52.3205C39.4101 52.3205 43.963 50.5433 49.2321 48.4842C50.9433 47.8161 52.7145 47.1245 54.6653 46.4486C57.5148 45.4621 59.3666 45.0472 60.5127 44.8827C59.924 46.2476 59.239 47.5603 58.4628 48.8104C58.4915 48.6538 58.416 48.539 58.0409 48.6434C56.9157 48.9539 55.1081 49.5881 52.6702 50.5302C51.7195 50.8982 50.8418 51.2531 49.9901 51.595C44.9475 53.628 41.3063 55.0973 32.8726 55.0973V57.9262C41.8533 57.9262 45.9086 56.2899 51.0449 54.2204C51.8862 53.8811 52.7561 53.5314 53.686 53.1713C54.5924 52.8216 55.3295 52.5397 55.9338 52.3101C50.4198 58.9023 42.1372 63.0935 32.8778 63.0935Z" fill="white"/>
<path d="M32.8752 52.3205C26.3402 52.3205 21.7874 50.5433 16.5182 48.4842C14.807 47.8161 13.0359 47.1245 11.085 46.4486C8.2356 45.4647 6.38372 45.0498 5.2377 44.8827C5.82634 46.2476 6.51395 47.5603 7.28752 48.8104C7.25887 48.6564 7.3344 48.539 7.70947 48.6434C8.83466 48.9539 10.6423 49.5881 13.0802 50.5302C14.0308 50.8982 14.9086 51.2531 15.7603 51.595C20.8028 53.628 24.4441 55.0973 32.8778 55.0973V57.9262C23.8971 57.9262 19.8417 56.2899 14.7054 54.2204C13.8642 53.8811 12.9942 53.5314 12.0644 53.1713C11.158 52.8216 10.4157 52.5319 9.80097 52.2918C15.3201 58.8944 23.6106 63.0935 32.8778 63.0935C42.1372 63.0935 50.4198 58.9023 55.9338 52.3101C55.3295 52.5397 54.5924 52.8216 53.686 53.1713C52.7561 53.5314 51.8862 53.8811 51.0449 54.2204C45.9086 56.2899 41.8533 57.9262 32.8726 57.9262V55.0973C41.3063 55.0973 44.9475 53.628 49.9901 51.595C50.8418 51.2531 51.7195 50.8982 52.6702 50.5302C55.1081 49.5881 56.9157 48.9539 58.0409 48.6434C58.416 48.539 58.4915 48.6538 58.4628 48.8104C59.239 47.5603 59.924 46.2476 60.5127 44.8827C59.3666 45.0472 57.5148 45.4621 54.6653 46.4486C52.7145 47.1245 50.9433 47.8161 49.2321 48.4842C43.963 50.5433 39.4101 52.3205 32.8752 52.3205ZM32.8752 52.3205V50.478M63.4507 42.0094C64.2998 39.1335 64.7556 36.0931 64.7556 32.9406C64.7556 15.3014 50.4823 1 32.8778 1C15.2732 1 1 15.3014 1 32.9406C1 36.0905 1.45841 39.1335 2.30491 42.0094C2.3023 42.0094 2.3023 42.0094 2.2997 42.0094L2.31272 42.0381C6.22224 55.246 18.4248 64.8812 32.8752 64.8812C47.3255 64.8812 59.5281 55.246 63.4376 42.0381L63.4507 42.0094ZM32.8778 2.78767C49.4978 2.78767 62.9714 16.2878 62.9714 32.9406C62.9714 36.0879 62.4896 39.1231 61.5962 41.9755C60.0438 42.0773 57.4861 42.4818 53.7485 43.7762C51.743 44.4704 49.9484 45.1724 48.2111 45.851C45.2549 47.0045 42.6503 48.0223 39.8555 48.6851C39.7566 48.5494 39.6446 48.4033 39.5169 48.2493C37.1467 45.3995 34.6828 39.6998 39.5169 35.8061C44.3511 31.9123 50.9876 30.7719 55.4441 27.1626C59.9006 23.5534 57.1501 18.8036 57.1501 18.8036C57.1501 18.8036 57.5304 19.6596 54.496 20.7975C51.4617 21.9379 39.991 23.3628 36.5789 24.1223C33.1669 24.8817 32.8804 26.5911 32.8804 26.5911C32.8804 26.5911 32.5965 24.8817 29.1818 24.1223C25.7698 23.3628 14.2965 21.9379 11.2648 20.7975C8.23039 19.657 8.61066 18.8036 8.61066 18.8036C8.61066 18.8036 5.8602 23.5534 10.3167 27.1626C14.7732 30.7719 21.4097 31.9123 26.2439 35.8061C31.078 39.6998 28.614 45.3995 26.2439 48.2493C26.1136 48.4059 26.0042 48.5494 25.9053 48.6851C23.1105 48.0223 20.5059 47.0045 17.5497 45.851C15.8124 45.1724 14.0152 44.4704 12.0123 43.7762C8.27467 42.4844 5.71694 42.0773 4.1646 41.9755C3.27122 39.1231 2.78937 36.0879 2.78937 32.9406C2.78416 16.2878 16.2578 2.78767 32.8778 2.78767Z" stroke="white" stroke-width="1.4624" stroke-miterlimit="10"/>
</svg>
