<svg width="400" height="133" viewBox="0 0 400 133" fill="none" xmlns="http://www.w3.org/2000/svg">
<path d="M398.195 58.5706C398.697 59.2588 399.277 59.6698 399.663 59.8879C399.834 59.9855 400.038 59.8311 399.993 59.6403C399.15 56.2495 397.538 55.0594 393.951 54.6415C390.594 54.2509 387.309 56.1904 386.666 56.5947C386.596 56.6401 386.505 56.6379 386.432 56.5947C381.709 53.7444 379.545 55.2184 378.779 56.0882C378.64 56.245 378.777 56.488 378.981 56.4539C381.063 56.1041 382.127 57.2397 382.495 57.7621C382.582 57.8825 382.525 58.0505 382.386 58.0982C381.259 58.482 376.776 60.0696 373.849 61.9387C370.744 63.9214 369.784 67.4917 369.65 68.0413C369.639 68.089 369.612 68.1299 369.573 68.1617C369.391 68.307 368.912 68.6931 369.85 67.9891C370.641 67.3963 371.435 68.0572 371.832 68.4978C371.951 68.6273 372.162 68.5796 372.212 68.4115C372.887 66.1449 374.042 65.4999 374.608 65.3159C374.762 65.266 374.917 65.3863 374.901 65.5476C374.821 66.3788 374.96 66.9534 375.115 67.3191C375.201 67.5212 375.492 67.4894 375.54 67.2759C376.131 64.5437 377.806 63.5217 378.217 63.8715C378.395 64.0236 378.381 64.2939 378.304 64.5619C378.238 64.7913 378.526 64.9525 378.683 64.7708C379.392 63.9578 380.177 62.4838 380.745 61.6889C381.293 60.9235 382.3 60.8327 382.854 60.844C383.029 60.8486 383.127 61.0462 383.027 61.1915C375.397 72.3565 371.776 84.062 371.776 84.062L371.707 83.526C368.387 62.9993 355.946 45.1777 353.905 42.3614C353.794 42.207 353.912 41.9935 354.101 42.0094C354.498 42.0412 355.183 42.1003 356.289 42.207C358.378 42.4091 359.51 45.2208 360.438 46.8447C360.954 47.7486 361.831 48.4822 362.506 48.9546C362.706 49.0954 362.954 48.8524 362.82 48.6502C362.356 47.9507 361.829 47.0241 361.947 46.5858C362.149 45.8317 363.804 46.5562 364.761 48.1211C365.718 49.6859 367.489 54.3531 367.459 54.0919C367.434 53.8648 367.584 50.1242 367.623 49.159C367.627 49.0295 367.743 48.9273 367.873 48.9455C369.691 49.2112 371.546 53.104 372.185 54.5757C372.264 54.7596 372.526 54.7528 372.596 54.5666C372.798 54.0329 373.18 53.2629 373.81 52.9041C374.49 52.5157 375.258 52.7633 375.694 52.97C375.851 53.0449 376.033 52.9177 376.013 52.7451C375.542 48.7388 370.482 44.3487 367.4 42.5568C364.468 40.8534 356.544 38.1462 355.273 37.7169C355.167 37.6806 355.103 37.5716 355.126 37.4603C355.517 35.5457 359.904 35.4617 361.461 35.4935C361.665 35.498 361.767 35.2459 361.615 35.1074C360.895 34.4488 359.138 33.2223 356.058 33.2223C352.373 33.2223 349.757 35.3345 349.166 35.8591C349.089 35.9273 348.979 35.9341 348.893 35.8773C344.317 32.7658 337.817 31.7438 332.734 34.3238C328.393 36.5291 327.722 40.9329 327.618 42.2388C327.604 42.4114 327.781 42.534 327.938 42.4568C328.609 42.123 330.079 41.2736 330.5 40.0335C331.05 38.4096 332.618 35.8887 334.039 37.1651C335.15 38.1621 333.227 40.2084 332.336 41.051C332.186 41.1941 332.295 41.4484 332.502 41.4348C335.014 41.2781 338.198 38.748 339.812 37.86C341.201 37.0969 342.722 37.5148 343.276 37.7147C343.401 37.7601 343.458 37.9032 343.399 38.0235C342.76 39.3136 339.785 43.6492 338.13 44.8165C336.362 46.0634 333.025 50.4399 330.588 54.1487C328.67 57.0694 328.209 60.224 328.097 61.4345C328.079 61.6298 328.306 61.7502 328.459 61.6253L332.464 58.3844C332.564 58.3049 332.709 58.3231 332.784 58.4275L334.027 60.1445C334.123 60.2762 334.325 60.2649 334.403 60.1195C336.414 56.3267 339.915 56.1746 340.924 56.2154C341.065 56.22 341.176 56.0996 341.153 55.9611C340.985 54.8755 340.84 52.4408 340.787 51.5073C340.778 51.3347 340.96 51.2166 341.112 51.2984C342.229 51.9093 343.181 53.1925 343.595 53.808C343.695 53.9556 343.92 53.9329 343.986 53.7694C344.908 51.496 344.722 47.8849 344.631 46.7084C344.618 46.5381 344.795 46.4177 344.949 46.4927L347.522 47.7191C347.663 47.7872 347.829 47.6895 347.841 47.5328L348.261 41.3735C348.275 41.1736 348.529 41.0919 348.657 41.2463C353.235 46.8379 356.453 52.8927 358.713 58.7637C351.946 59.0476 346.37 60.5374 342.135 63.2038C336.901 66.5015 331.589 67.9777 328.647 67.9777C325.57 67.9777 324.013 67.0692 320.912 65.2591C316.625 62.7586 310.756 59.3314 300.878 59.3314C297.68 59.3314 294.902 59.5881 292.443 60.006C294.154 58.2209 295.602 55.5818 295.602 51.7594C295.602 45.7091 292.177 41.3894 288.249 39.0864C290.554 36.8176 296.866 30.7218 302.696 26.1591C309.997 20.4471 315.782 20.5153 318.951 22.9931C322.119 25.4709 324.253 31.1147 319.432 34.6236C314.611 38.1326 309.652 35.037 309.652 31.0443C309.652 27.0516 313.991 27.8783 313.991 29.8747C313.991 31.871 311.856 31.871 311.856 31.871C312.959 33.7288 318.469 33.7288 318.469 29.7384C318.469 19.6227 305.59 22.3753 305.59 31.1828C305.59 43.4334 325.908 41.1623 325.908 30.908C325.908 18.3827 315.095 17.213 313.718 17.213C308.208 17.213 304.144 19.416 296.911 26.0228C291.086 31.3441 286.692 36.084 285.203 37.726C284.032 37.3581 282.882 37.1696 281.827 37.1696C276.249 37.1696 269.499 40.5422 262.611 45.7727C259.69 47.9893 256.129 51.1599 252.992 54.076C254.749 46.7902 260.516 33.747 263.786 27.633C267.412 20.8559 273.256 13.5678 279.827 13.5678C286.399 13.5678 289.851 18.7688 289.851 22.1346C289.851 25.5027 288.103 30.8717 281.916 30.8717C276.5 30.8717 273.513 25.1598 276.115 22.0914C277.932 19.9498 280.636 21.6236 280.636 23.5836C280.636 25.5436 278.034 25.2892 278.034 25.2892C278.034 25.2892 278.993 27.1856 281.227 27.1856C285.521 27.1856 286.905 21.9574 284.76 19.0095C282.614 16.0616 277.52 14.0629 273.09 19.0549C270.987 21.4237 269.603 27.7216 274.431 31.9232C279.261 36.1226 287.578 34.6486 291.111 30.0473C294.643 25.4459 295.27 16.8224 286.326 11.0151C277.384 5.20774 266.83 14.5444 262.67 22.23C258.668 29.6248 252.474 39.0297 248.544 58.3003C247.403 59.4064 246.487 60.308 245.914 60.8758C244.875 60.6646 243.823 60.4875 242.752 60.3603C244.434 55.6317 245.352 50.5444 245.352 45.2481C245.357 20.2972 225.043 0 200.074 0C175.104 0 154.788 20.2972 154.788 45.2458C154.788 50.5444 155.706 55.6295 157.389 60.358C156.318 60.4875 155.263 60.6623 154.227 60.8736C153.654 60.3058 152.74 59.4041 151.597 58.2981C147.669 39.0251 141.473 29.6226 137.47 22.2277C133.31 14.5422 122.759 5.20547 113.815 11.0128C104.873 16.8201 105.498 25.4437 109.03 30.045C112.562 34.6463 120.879 36.1203 125.709 31.921C130.54 27.7216 129.153 21.4215 127.05 19.0527C122.62 14.0607 117.526 16.0593 115.381 19.0072C113.235 21.9552 114.622 27.1834 118.913 27.1834C121.15 27.1834 122.107 25.287 122.107 25.287C122.107 25.287 119.504 25.5436 119.504 23.5813C119.504 21.619 122.209 19.9475 124.025 22.0892C126.628 25.1575 123.641 30.8694 118.224 30.8694C112.039 30.8694 110.289 25.4982 110.289 22.1323C110.289 18.7642 113.744 13.5656 120.313 13.5656C126.882 13.5656 132.726 20.8537 136.354 27.6308C139.625 33.7424 145.391 46.7879 147.149 54.0737C144.012 51.1576 140.448 47.9893 137.529 45.7704C130.642 40.54 123.891 37.1673 118.313 37.1673C117.256 37.1673 116.108 37.3558 114.938 37.7238C113.449 36.0817 109.055 31.3418 103.229 26.0205C95.9987 19.4183 91.9368 17.2153 86.4247 17.2153C85.0472 17.2153 74.2345 18.3849 74.2345 30.9103C74.2345 41.1645 94.553 43.4357 94.553 31.1851C94.553 22.3753 81.6741 19.6227 81.6741 29.7407C81.6741 33.7333 87.1839 33.7333 88.2863 31.8733C88.2863 31.8733 86.1519 31.8733 86.1519 29.8769C86.1519 27.8806 90.4911 27.0562 90.4911 31.0466C90.4911 35.037 85.5314 38.1348 80.7103 34.6259C75.8892 31.117 78.0236 25.4732 81.1922 22.9954C84.3608 20.5175 90.1456 20.4494 97.4466 26.1613C103.279 30.7241 109.589 36.8198 111.894 39.0887C107.966 41.3917 104.541 45.7114 104.541 51.7617C104.541 55.5818 105.986 58.2209 107.7 60.0082C105.241 59.5904 102.461 59.3337 99.265 59.3337C89.3864 59.3337 83.5175 62.7586 79.2306 65.2614C76.1302 67.0715 74.5754 67.9777 71.4977 67.9777C68.5564 67.9777 63.2444 66.5015 58.0096 63.2038C53.7772 60.5374 48.1992 59.0476 41.4324 58.7637C43.6918 52.8927 46.9104 46.8379 51.4883 41.2463C51.6156 41.0896 51.8702 41.1714 51.8838 41.3735L52.3043 47.5328C52.3157 47.6895 52.4816 47.7872 52.6225 47.7191L55.1956 46.4927C55.3502 46.42 55.5275 46.5381 55.5138 46.7084C55.4229 47.8849 55.2365 51.496 56.1594 53.7694C56.2253 53.9352 56.4503 53.9556 56.5503 53.808C56.964 53.1948 57.9164 51.9116 59.0325 51.2984C59.1825 51.2166 59.3666 51.3347 59.3575 51.5073C59.3052 52.4408 59.1598 54.8755 58.9916 55.9611C58.9711 56.0996 59.0802 56.22 59.2211 56.2154C60.2304 56.1746 63.7308 56.3267 65.7424 60.1195C65.8197 60.2649 66.022 60.2762 66.1175 60.1445L67.3608 58.4275C67.4358 58.3231 67.5813 58.3049 67.6813 58.3844L71.6864 61.6253C71.8387 61.7502 72.066 61.6298 72.0478 61.4345C71.9387 60.224 71.475 57.0694 69.5566 54.1487C67.1199 50.4376 63.7831 46.0611 62.0147 44.8165C60.3599 43.6514 57.3845 39.3158 56.7458 38.0235C56.6867 37.9032 56.7413 37.7601 56.8686 37.7147C57.4254 37.5148 58.9438 37.0969 60.3326 37.86C61.9465 38.7458 65.1287 41.2758 67.6427 41.4348C67.8495 41.4484 67.9586 41.1918 67.8086 41.051C66.9176 40.2084 64.9946 38.1644 66.1061 37.1651C67.5268 35.8887 69.0929 38.4119 69.6452 40.0335C70.0657 41.2736 71.5364 42.123 72.2069 42.4568C72.3615 42.534 72.5411 42.4114 72.5274 42.2388C72.4229 40.9329 71.7546 36.5291 67.4108 34.3238C62.3306 31.7416 55.8298 32.7658 51.2519 35.8773C51.1678 35.9341 51.0564 35.9273 50.9791 35.8591C50.3859 35.3345 47.7696 33.2223 44.0873 33.2223C41.0074 33.2223 39.2503 34.4488 38.5298 35.1074C38.3775 35.2459 38.4798 35.498 38.6844 35.4935C40.2414 35.4617 44.6306 35.5457 45.0193 37.4603C45.042 37.5693 44.9784 37.6806 44.8715 37.7169C43.6009 38.1462 35.6771 40.8534 32.7449 42.5568C29.6627 44.3487 24.603 48.7388 24.1325 52.7451C24.112 52.9177 24.2916 53.0449 24.4507 52.97C24.8871 52.7633 25.6554 52.5157 26.335 52.9041C26.9646 53.2629 27.3488 54.0329 27.5488 54.5666C27.6193 54.7551 27.8807 54.7596 27.9602 54.5757C28.599 53.104 30.4515 49.2089 32.2722 48.9455C32.4017 48.9273 32.5176 49.0273 32.5222 49.159C32.5608 50.1242 32.7131 53.8648 32.6858 54.0919C32.6563 54.3531 34.427 49.6859 35.3839 48.1211C36.3409 46.5562 37.9956 45.8317 38.1979 46.5858C38.3161 47.0241 37.7865 47.9507 37.3251 48.6502C37.191 48.8546 37.4365 49.0954 37.6388 48.9546C38.3139 48.4822 39.1912 47.7486 39.7072 46.8447C40.6346 45.2208 41.7666 42.4091 43.8555 42.207C44.9625 42.1003 45.6466 42.0412 46.0444 42.0094C46.2331 41.9935 46.3513 42.207 46.2399 42.3614C44.1987 45.1777 31.7585 62.9993 28.4376 83.526L28.3694 84.062C28.3694 84.062 24.7484 72.3565 17.1179 61.1915C17.0202 61.0462 17.1156 60.8486 17.2907 60.844C17.8453 60.8304 18.8545 60.9235 19.4 61.6889C19.9683 62.4838 20.7525 63.9578 21.4617 64.7708C21.6185 64.9503 21.9094 64.789 21.8412 64.5619C21.764 64.2939 21.7503 64.0236 21.9276 63.8715C22.3368 63.5194 24.0143 64.5437 24.6052 67.2759C24.6507 67.4917 24.9417 67.5212 25.0303 67.3191C25.1871 66.9534 25.3235 66.3788 25.244 65.5476C25.2281 65.3863 25.3826 65.266 25.5372 65.3159C26.1009 65.4999 27.2579 66.1472 27.933 68.4115C27.983 68.5796 28.1944 68.6273 28.3125 68.4978C28.7103 68.0549 29.5036 67.394 30.2946 67.9891C31.2334 68.6931 30.7561 68.307 30.5719 68.1617C30.5333 68.1299 30.506 68.089 30.4947 68.0413C30.3628 67.4917 29.4036 63.9214 26.2964 61.9387C23.3687 60.0696 18.884 58.482 17.7589 58.0982C17.618 58.0505 17.5634 57.8825 17.6498 57.7621C18.018 57.2397 19.0795 56.1041 21.1639 56.4539C21.3685 56.488 21.5048 56.245 21.3662 56.0882C20.6002 55.2207 18.4363 53.7444 13.7129 56.5947C13.6402 56.6379 13.5515 56.6401 13.4788 56.5947C12.8355 56.1882 9.55328 54.2486 6.19375 54.6415C2.60465 55.0594 0.993074 56.2518 0.152055 59.6403C0.104321 59.8311 0.308893 59.9855 0.481643 59.8879C0.868057 59.6676 1.44768 59.2565 1.95002 58.5706C2.79331 57.4169 3.72979 56.7628 4.19804 57.4782C4.51171 57.9597 3.73207 58.9431 3.18427 59.5404C3.03652 59.7016 3.182 59.956 3.39566 59.9083C4.08211 59.7584 5.1368 59.4564 5.91417 58.9136C7.09387 58.0869 8.88956 57.1511 10.1374 57.7893C10.2556 57.8484 10.2943 57.9983 10.2216 58.1096C9.72603 58.8681 7.85079 61.6639 6.31877 62.8426C4.59354 64.1735 0.372538 68.7022 0.233883 72.4178C0.227064 72.5836 0.392995 72.6994 0.545288 72.6336C1.0749 72.4042 2.16368 71.8704 2.8365 71.1142C2.94106 70.9983 3.12744 71.0165 3.20018 71.155L3.57068 71.8455C3.65024 71.9954 3.86163 72.0044 3.95255 71.8614C4.29578 71.3276 5.10043 70.317 6.41196 70.0467C7.52802 69.8151 8.02808 69.6788 8.24629 69.6107C8.34403 69.5789 8.40541 69.4857 8.39859 69.3835L8.24175 67.0897C8.22584 66.8671 8.50996 66.7626 8.6418 66.9421L9.91469 68.65C10.0397 68.8158 10.3034 68.7363 10.3147 68.5296L10.5716 63.8692C10.5807 63.7011 10.7671 63.6035 10.9103 63.6921L12.5128 64.6709C12.6582 64.7595 12.8469 64.6596 12.8514 64.4892L12.9719 60.7123C12.9787 60.4875 13.2765 60.4125 13.3879 60.6078C14.9904 63.4195 20.9889 74.882 21.2025 89.4014C21.2048 89.5218 21.3025 89.6195 21.423 89.6195H36.0113C36.1386 89.6195 36.2409 89.515 36.234 89.3878C36.184 88.4248 36.0477 84.5366 36.6273 79.0336C40.546 78.7793 45.3557 79.1926 47.1877 80.3464C55.0365 85.2907 64.1218 88.2431 71.4909 88.2431C80.0557 88.2431 85.2654 85.2021 89.4524 82.7606C92.8301 80.7892 94.869 79.5992 99.2605 79.5992C105.429 79.5992 108.137 80.8801 112.235 82.8174C117.14 85.1385 123.243 88.0251 134.156 88.0251C138.847 88.0251 143.419 86.1582 148.255 84.1823C153.37 82.0929 159.291 79.8967 164.81 80.2737C166.476 80.3873 170.365 81.273 174.054 82.2655C181.421 87.4505 190.395 90.4984 200.071 90.4984C209.748 90.4984 218.722 87.4482 226.088 82.2655C229.78 81.273 233.667 80.3873 235.333 80.2737C240.852 79.8967 246.771 82.0952 251.887 84.1823C256.727 86.1582 261.295 88.0251 265.987 88.0251C276.9 88.0251 283.003 85.1385 287.908 82.8174C292.006 80.8801 294.711 79.5992 300.882 79.5992C305.274 79.5992 307.313 80.7892 310.69 82.7606C314.875 85.2044 320.085 88.2431 328.652 88.2431C336.021 88.2431 345.106 85.2907 352.955 80.3464C354.787 79.1926 359.597 78.7793 363.515 79.0336C364.097 84.5366 363.959 88.4248 363.909 89.3878C363.902 89.515 364.004 89.6195 364.131 89.6195H378.72C378.84 89.6195 378.94 89.5218 378.94 89.4014C379.156 74.882 385.152 63.4195 386.755 60.6078C386.866 60.4125 387.164 60.4875 387.171 60.7123L387.291 64.4892C387.296 64.6596 387.484 64.7618 387.63 64.6709L389.232 63.6921C389.376 63.6035 389.562 63.7011 389.571 63.8692L389.828 68.5296C389.839 68.7363 390.105 68.818 390.228 68.65L391.501 66.9421C391.633 66.7649 391.917 66.8694 391.901 67.0897L391.744 69.3835C391.737 69.4857 391.799 69.5789 391.896 69.6107C392.115 69.6811 392.615 69.8173 393.731 70.0467C395.042 70.317 395.847 71.3276 396.19 71.8614C396.281 72.0044 396.492 71.9954 396.572 71.8455L396.943 71.155C397.015 71.0165 397.204 70.9983 397.306 71.1142C397.981 71.8704 399.068 72.4042 399.597 72.6336C399.75 72.6994 399.916 72.5813 399.909 72.4178C399.77 68.7022 395.549 64.1735 393.824 62.8426C392.294 61.6616 390.417 58.8681 389.921 58.1096C389.848 57.9983 389.889 57.8507 390.005 57.7893C391.253 57.1511 393.047 58.0869 394.229 58.9136C395.006 59.4564 396.061 59.7584 396.747 59.9083C396.961 59.956 397.106 59.7016 396.958 59.5404C396.411 58.9431 395.631 57.9597 395.945 57.4782C396.417 56.7605 397.354 57.4169 398.195 58.5706ZM280.384 41.4394C286.376 41.4394 291.336 45.775 291.336 51.2802C291.336 60.5715 281.555 60.9848 278.043 58.507C274.531 56.0292 275.013 52.7269 276.527 50.7306C278.043 48.7343 281.28 50.2491 281.28 52.3136C281.28 54.3781 278.386 54.5166 278.386 54.5166C280.245 56.9263 286.308 57.1307 286.308 51.9707C286.308 40.4082 270.742 42.8179 270.742 53.4151C270.742 60.7327 276.552 63.2265 280.15 64.0691C279.839 64.2144 279.534 64.3598 279.234 64.5006C275.245 66.3879 272.36 67.7529 266.055 67.7597C265.098 67.6847 261.223 66.1017 259.559 65.4227C256.849 64.3166 253.883 63.1061 250.714 62.1204C265.639 44.9982 276.304 41.4394 280.384 41.4394ZM258.183 68.7885C262.325 70.4782 264.659 71.3458 265.937 71.3935L266.005 71.3958C273.163 71.3958 276.697 69.7242 280.791 67.7869C285.328 65.6407 290.974 62.9698 300.882 62.9698C309.777 62.9698 315.155 66.1086 319.082 68.4024C322.278 70.267 324.588 71.6161 328.65 71.6161C331.861 71.6161 337.828 70.2193 344.079 66.2812C347.861 63.8987 352.991 62.5837 359.329 62.3771C359.554 62.3702 359.772 62.3657 359.99 62.3612C360.513 63.9646 360.967 65.5408 361.365 67.0806C356.999 67.0579 350.882 67.5939 346.606 70.2875C339.51 74.7594 332.677 76.3514 328.65 76.3514C323.306 76.3514 320.239 74.5618 316.691 72.4905C312.847 70.2466 308.492 67.7052 300.882 67.7052C292.038 67.7052 287.351 69.9218 282.819 72.068C278.4 74.1575 274.229 76.1334 265.989 76.1334C263.636 76.1334 260.116 74.6958 256.39 73.1741C251.269 71.0824 245.084 68.5591 238.908 68.4955C239.804 67.0079 240.618 65.4658 241.338 63.876C247.498 64.4256 253.285 66.7876 258.183 68.7885ZM223.922 72.3792C217.965 74.8661 211.805 77.4348 200.071 77.4348C188.338 77.4348 182.178 74.8638 176.221 72.3792C172.979 71.0256 169.895 69.7401 166.16 68.9929C165.001 67.3463 163.96 65.6112 163.048 63.8011C163.783 63.8465 164.521 63.9192 165.262 64.0304C170.322 64.7867 174.25 66.4242 178.048 68.0095C183.828 70.4215 189.288 72.6994 200.071 72.6994C210.855 72.6994 216.314 70.4215 222.095 68.0095C225.893 66.4242 229.818 64.7867 234.88 64.0304C235.621 63.9192 236.36 63.8465 237.094 63.8011C236.183 65.6112 235.142 67.3463 233.983 68.9929C230.25 69.7378 227.166 71.0256 223.922 72.3792ZM229.937 73.9031C222.395 81.7477 211.796 86.6375 200.074 86.6375C188.352 86.6375 177.755 81.7477 170.211 73.9031C171.765 74.4573 173.275 75.0864 174.82 75.7314C180.814 78.2342 187.611 81.0686 200.071 81.0686C212.532 81.0686 219.328 78.2342 225.322 75.7314C226.873 75.0864 228.382 74.455 229.937 73.9031ZM158.648 45.2458C158.648 22.423 177.232 3.85414 200.074 3.85414C222.915 3.85414 241.499 22.423 241.499 45.2458C241.499 50.4831 240.518 55.4955 238.733 60.1127C237.292 60.115 235.828 60.2149 234.344 60.4352C228.836 61.2574 224.697 62.9834 220.695 64.655C217.485 65.995 214.382 67.2895 210.309 68.1253C210.214 67.6461 209.861 66.9784 209.084 66.0472C205.865 62.1885 202.519 54.4712 209.084 49.1976C215.648 43.924 224.661 42.3796 230.712 37.4921C236.763 32.6046 233.028 26.1727 233.028 26.1727C233.028 26.1727 233.544 27.331 229.423 28.8731C225.302 30.4152 209.727 32.3457 205.092 33.3745C200.458 34.4033 200.071 36.7176 200.071 36.7176C200.071 36.7176 199.685 34.4033 195.05 33.3745C190.416 32.3457 174.839 30.4152 170.72 28.8731C166.601 27.3287 167.115 26.1727 167.115 26.1727C167.115 26.1727 163.382 32.6046 169.431 37.4921C175.48 42.3796 184.492 43.924 191.059 49.1976C197.623 54.4712 194.277 62.1885 191.059 66.0472C190.281 66.9784 189.929 67.6461 189.834 68.1253C185.76 67.2895 182.655 65.995 179.448 64.655C175.445 62.9857 171.306 61.2574 165.799 60.4352C164.314 60.2149 162.851 60.1127 161.409 60.1127C159.63 55.4955 158.648 50.4853 158.648 45.2458ZM113.837 51.9707C113.837 57.133 119.9 56.9263 121.759 54.5166C121.759 54.5166 118.865 54.3781 118.865 52.3136C118.865 50.2491 122.102 48.7343 123.618 50.7306C125.134 52.7269 125.616 56.0292 122.102 58.507C118.59 60.9848 108.809 60.5715 108.809 51.2802C108.809 45.775 113.769 41.4394 119.761 41.4394C123.841 41.4394 134.506 44.9982 149.431 62.1204C146.26 63.1061 143.293 64.3166 140.584 65.4227C138.922 66.1017 135.049 67.6825 134.104 67.7597C127.785 67.7529 124.898 66.3879 120.909 64.5006C120.609 64.3575 120.304 64.2144 119.993 64.0691C123.591 63.2265 129.401 60.7305 129.401 53.4128C129.405 42.8179 113.837 40.4082 113.837 51.9707ZM40.8165 62.3748C47.1536 62.5837 52.2839 63.8965 56.0662 66.2789C62.317 70.217 68.2837 71.6138 71.4955 71.6138C75.5574 71.6138 77.8668 70.267 81.0626 68.4001C84.9904 66.1086 90.3684 62.9676 99.2627 62.9676C109.173 62.9676 114.819 65.6384 119.356 67.7847C123.45 69.7219 126.985 71.3935 134.156 71.3935L134.224 71.3912C135.488 71.3435 137.822 70.476 141.961 68.7862C146.86 66.7853 152.647 64.4234 158.805 63.8692C159.527 65.4613 160.341 67.0034 161.234 68.4887C155.059 68.5523 148.874 71.0778 143.753 73.1673C140.027 74.6889 136.509 76.1266 134.154 76.1266C125.916 76.1266 121.743 74.153 117.324 72.0612C112.792 69.9173 108.105 67.6983 99.2605 67.6983C91.6504 67.6983 87.293 70.2398 83.4516 72.4837C79.9034 74.5549 76.8371 76.3446 71.4932 76.3446C67.4654 76.3446 60.635 74.7525 53.5363 70.2806C49.2607 67.5871 43.144 67.0511 38.7776 67.0738C39.1731 65.5339 39.6299 63.9555 40.1527 62.3521C40.3732 62.3634 40.5914 62.368 40.8165 62.3748ZM165.042 76.8692C158.796 76.4423 152.436 78.7906 146.967 81.0232C142.448 82.8696 138.177 84.6116 134.156 84.6116C124.009 84.6116 118.29 81.9066 113.694 79.7309C109.507 77.7505 106.2 76.1856 99.2627 76.1856C93.9484 76.1856 91.3435 77.7073 87.7362 79.8127C83.9062 82.0475 79.1374 84.8319 71.4955 84.8319C64.7446 84.8319 56.3389 82.077 49.0107 77.4597C46.3013 75.7541 41.0142 75.4112 37.0682 75.5951C37.2955 74.053 37.5797 72.4223 37.932 70.7258C41.862 70.6304 47.7901 70.9574 51.5997 73.3558C58.1846 77.5029 65.622 79.9807 71.4955 79.9807C77.8236 79.9807 81.6195 77.7663 85.2882 75.6247C89.0682 73.4194 92.6369 71.3367 99.2627 71.3367C107.289 71.3367 111.41 73.2854 115.772 75.3498C120.359 77.5188 125.102 79.7627 134.156 79.7627C137.225 79.7627 140.889 78.266 145.13 76.5331C150.976 74.1461 157.593 71.448 163.776 72.2724C165.124 74.0757 166.606 75.7746 168.204 77.3575C166.901 77.0986 165.794 76.9215 165.042 76.8692ZM351.134 77.462C343.808 82.077 335.403 84.8342 328.65 84.8342C321.008 84.8342 316.239 82.052 312.409 79.8149C308.801 77.7096 306.194 76.1879 300.882 76.1879C293.945 76.1879 290.638 77.7527 286.451 79.7332C281.855 81.9066 276.134 84.6139 265.989 84.6139C261.968 84.6139 257.699 82.8696 253.178 81.0254C247.709 78.7929 241.349 76.4445 235.103 76.8715C234.353 76.9238 233.246 77.1009 231.941 77.3621C233.539 75.7791 235.019 74.0803 236.369 72.277C242.554 71.4526 249.169 74.1507 255.015 76.5377C259.259 78.2705 262.923 79.7672 265.989 79.7672C275.045 79.7672 279.789 77.5233 284.373 75.3544C288.735 73.2899 292.854 71.3413 300.882 71.3413C307.508 71.3413 311.079 73.4239 314.857 75.6292C318.525 77.7709 322.321 79.9853 328.65 79.9853C334.523 79.9853 341.96 77.5097 348.545 73.3603C352.348 70.9643 358.281 70.6372 362.213 70.7326C362.565 72.4269 362.849 74.0553 363.077 75.5974C359.133 75.4112 353.846 75.7541 351.134 77.462Z" fill="#7A7D6C"/>
<path d="M11.2083 120.923H11.3469C14.9201 120.923 21.0641 119.579 21.0641 112.999C21.0641 107.233 15.477 105.641 10.515 105.641H0.659177C0.243214 105.641 0.0340954 105.888 0.0340954 106.172C0.0340954 106.42 0.17275 106.667 0.450059 106.808C2.7049 106.915 3.15723 107.233 3.32998 108.046C3.50273 108.859 3.50273 110.805 3.50273 114.378V121.984C3.50273 125.593 3.50273 128.74 3.32998 129.519C3.12086 130.439 2.7049 130.971 0.484154 131.075C0.17275 131.255 0 131.539 0 131.784C0 132.031 0.209118 132.245 0.693272 132.245H11.0696C11.4515 132.245 11.6242 131.997 11.6242 131.713C11.6242 131.466 11.4515 131.182 11.1742 131.041C7.63509 130.934 7.60099 130.085 7.60099 125.77V120.639C8.43292 120.746 9.99449 120.923 11.2083 120.923ZM7.59872 111.866C7.59872 107.267 7.59872 106.842 10.3059 106.842C14.436 106.842 16.5181 109.565 16.5181 113.14C16.5181 118.023 13.3267 119.649 10.3059 119.649H10.2013C9.16029 119.649 8.11924 119.472 7.59872 119.261V111.866Z" fill="#7A7D6C"/>
<path d="M46.047 131.076C43.9309 130.899 43.6172 130.263 42.6125 127.786C40.4599 122.373 36.8868 112.36 34.5614 106.453C34.3523 105.958 34.2841 104.824 33.5909 104.824C33.1749 104.824 33.0362 105.072 32.8612 105.426C32.5839 106.028 31.8543 106.771 31.4042 107.018C30.6405 107.407 30.6746 108.292 30.4677 109.071C28.697 113.707 26.9968 118.376 25.6103 122.126C24.2578 125.735 23.285 128.281 22.8349 129.166C22.3144 130.227 21.6893 131.006 19.6777 131.076C19.539 131.076 19.2617 131.465 19.2617 131.785C19.2617 131.996 19.4004 132.21 19.8527 132.21H27.5901C27.9719 132.21 28.2152 131.998 28.2152 131.678C28.2152 131.501 28.1106 131.29 27.8333 131.076C27.0014 131.04 24.6056 131.076 24.6056 129.768C24.6056 129.132 26.1331 124.956 26.8968 122.939C27.0355 122.551 27.3128 122.514 27.556 122.514H36.1617C37.4459 125.946 38.7302 129.518 38.7302 129.979C38.7302 130.829 37.7232 131.04 36.4049 131.076C36.1617 131.254 35.9889 131.537 35.9889 131.749C35.9889 131.996 36.198 132.207 36.6481 132.207H45.8084C46.1902 132.207 46.3994 131.96 46.3994 131.712C46.3948 131.465 46.2903 131.254 46.047 131.076ZM27.656 120.781L31.6474 109.991L35.5684 120.781H27.656Z" fill="#7A7D6C"/>
<path d="M72.1092 130.971C70.443 130.901 70.1316 130.192 69.4725 129.095C68.4655 127.467 64.8582 121.135 62.8443 119.118C65.6561 118.234 68.0837 116.145 68.0837 112.538C68.0837 107.197 63.1557 105.639 57.9505 105.639H48.2333C47.9219 105.639 47.6787 105.886 47.6787 106.204C47.6787 106.418 47.7833 106.629 48.0606 106.77C50.3518 106.806 50.8018 107.194 50.9405 108.007C51.0792 108.821 51.1837 111.192 51.1837 114.764V121.982C51.1837 125.591 51.1496 128.739 50.9746 129.518C50.8018 130.401 50.4541 130.969 48.1288 131.039C47.8856 131.216 47.7469 131.464 47.7469 131.711C47.7469 131.995 47.956 132.243 48.372 132.243H58.4006C58.7824 132.243 58.9916 131.995 58.9916 131.711C58.9916 131.5 58.8529 131.216 58.5415 131.039C55.1751 130.898 55.1751 130.19 55.1751 125.768V120.283C55.1751 120.072 55.2456 119.822 55.6616 119.822H58.021C58.3324 119.822 58.6461 119.963 59.3052 120.742C61.0759 122.865 63.2262 126.899 65.9334 131.498C65.9675 131.568 66.1766 132.1 66.2107 132.241H72.1092C72.4569 132.241 72.5956 131.957 72.5956 131.675C72.5956 131.393 72.4547 131.078 72.1092 130.971ZM56.3208 118.482C55.2456 118.482 55.1751 118.341 55.1751 117.88V112.15C55.1751 109.602 55.2092 108.825 55.3138 108.082C55.4184 107.374 55.9048 106.915 57.5005 106.915C61.6646 106.915 63.5376 109.286 63.5376 112.293C63.5376 117.21 60.8304 118.482 56.3208 118.482Z" fill="#7A7D6C"/>
<path d="M98.0993 131.007C96.2945 130.866 95.8444 130.264 94.3851 128.388C91.5393 124.673 87.2706 118.836 84.9816 116.183C89.0754 112.22 91.1234 109.992 92.1644 108.932C93.1714 107.905 94.3511 107.021 96.3286 106.774C96.6059 106.667 96.7445 106.42 96.7445 106.208C96.7445 105.925 96.5354 105.643 96.1536 105.643H88.2071C87.7911 105.643 87.6161 105.89 87.6161 106.138C87.6161 106.351 87.7206 106.599 87.998 106.74C89.0731 106.81 90.6347 107.024 90.6347 107.8C90.6347 108.012 90.5301 108.259 90.2869 108.543C89.1754 109.781 83.1382 116.008 80.7084 118.343V113.497C80.7084 106.844 80.7084 106.844 83.5201 106.774C83.7974 106.563 83.9702 106.313 83.9702 106.102C83.9702 105.818 83.761 105.641 83.3451 105.641H73.9416C73.5256 105.641 73.3506 105.852 73.3506 106.136C73.3506 106.349 73.4892 106.631 73.8006 106.772C76.2646 106.842 76.4373 107.303 76.5419 108.187C76.6806 109.143 76.7147 111.194 76.7147 114.519V122.231C76.7147 125.593 76.6806 128.6 76.5419 129.519C76.2987 130.934 75.2236 130.828 73.8711 131.041C73.5938 131.182 73.4551 131.466 73.4551 131.75C73.4551 131.997 73.6279 132.245 74.0461 132.245H83.3451C83.761 132.245 83.9702 131.961 83.9702 131.679C83.9702 131.432 83.7974 131.184 83.5201 131.043C81.5085 130.903 81.0561 130.619 80.8834 129.558C80.7788 128.815 80.7106 127.153 80.7106 124.25V120.253C80.9879 119.935 81.6812 119.193 81.9949 118.909C84.8066 122.093 87.4092 125.986 89.8368 129.311C90.1846 129.772 90.3233 130.09 90.3233 130.337C90.3233 130.939 89.3868 131.009 88.2071 131.116C87.9639 131.257 87.8252 131.541 87.8252 131.788C87.8252 132.036 87.998 132.249 88.4503 132.249H97.8197C98.2698 132.249 98.4789 132.002 98.4789 131.684C98.4811 131.432 98.3425 131.184 98.0993 131.007Z" fill="#7A7D6C"/>
<path d="M130.267 105.604H129.99C128.671 105.674 126.694 105.781 122.946 105.781H117.324C113.576 105.781 111.669 105.674 110.246 105.604H109.969C109.587 105.604 109.31 105.71 109.205 106.276C108.996 107.373 108.476 110.768 108.094 113.316C108.128 113.6 108.442 113.811 108.753 113.811C108.926 113.811 109.101 113.741 109.203 113.564C110.071 111.159 112.222 106.984 114.338 106.984H116.836C117.356 106.984 117.911 107.162 117.911 107.162C118.016 108.081 118.05 109.887 118.05 112.326V122.658C118.05 126.655 118.05 128.672 117.911 129.414C117.668 130.97 115.863 130.9 114.338 131.043C114.095 131.183 113.922 131.504 113.922 131.751C113.922 132.035 114.095 132.246 114.513 132.246H125.721C126.137 132.246 126.312 131.999 126.312 131.715C126.312 131.467 126.173 131.149 125.93 131.043C123.5 130.936 122.598 130.548 122.391 129.521C122.218 128.778 122.218 126.691 122.218 122.658V112.326C122.218 109.851 122.252 108.011 122.391 107.125C122.391 107.125 122.982 106.984 123.537 106.984H125.828C128.535 106.984 130.581 112.079 131.138 113.671C131.242 113.777 131.347 113.811 131.52 113.811C131.831 113.811 132.179 113.6 132.179 113.316C131.797 110.627 131.242 107.336 131.033 106.276C130.926 105.71 130.649 105.604 130.267 105.604Z" fill="#7A7D6C"/>
<path d="M145.085 104.969C137.172 104.969 132.94 111.939 132.94 119.086C132.94 126.127 137.07 132.92 145.398 132.92C153.274 132.92 157.509 125.772 157.509 118.698C157.507 111.689 153.379 104.969 145.085 104.969ZM145.501 131.643C139.498 131.643 137.763 124.887 137.763 118.836C137.763 112.856 139.741 106.277 144.98 106.277C151.017 106.277 152.718 112.822 152.718 118.836C152.72 124.921 150.74 131.643 145.501 131.643Z" fill="#7A7D6C"/>
<path d="M192.798 105.641H185.581C185.199 105.641 184.99 105.888 184.99 106.206C184.99 106.42 185.095 106.667 185.372 106.808C187.488 106.915 188.184 107.339 188.184 108.4C188.184 109.497 185.338 119.756 183.256 126.197C181.035 119.792 178.294 111.055 177.391 107.941C177.391 107.871 177.357 107.8 177.357 107.73C177.357 107.128 177.982 106.917 179.405 106.81C179.683 106.633 179.821 106.386 179.821 106.138C179.821 105.854 179.649 105.643 179.267 105.643H170.659C170.277 105.643 170.068 105.89 170.068 106.174C170.068 106.422 170.206 106.669 170.484 106.81C172.323 106.917 172.532 107.235 173.259 109.145C173.468 109.676 173.814 110.701 174.057 111.339C173.327 113.887 171.559 120.396 169.754 125.951C168.608 122.556 164.201 108.579 164.201 107.803C164.201 106.99 164.894 106.883 166.04 106.813C166.317 106.706 166.49 106.424 166.49 106.177C166.49 105.893 166.281 105.645 165.865 105.645H157.398C157.05 105.645 156.843 105.893 156.843 106.177C156.843 106.388 156.982 106.638 157.259 106.813C159.169 106.919 159.375 107.448 159.966 109.113C161.701 114.03 164.719 123.442 167.392 131.791C167.565 132.322 167.774 132.924 168.399 132.924C169.163 132.924 169.302 132.358 169.511 131.897C171.072 126.874 173.223 118.7 174.821 113.642C176.416 118.348 179.158 125.99 180.996 131.65C181.206 132.322 181.378 132.924 182.003 132.924C182.594 132.924 182.906 132.463 183.079 131.863C185.508 124.364 188.666 112.972 189.913 109.15C190.364 107.735 190.85 107.062 192.932 106.815C193.209 106.708 193.382 106.426 193.382 106.143C193.389 105.888 193.216 105.641 192.798 105.641Z" fill="#7A7D6C"/>
<path d="M215.46 124.284C215.287 124.284 215.112 124.355 215.01 124.461C214.142 126.689 212.755 128.636 211.366 129.839C210.603 130.475 209.632 130.97 206.786 130.97C202.206 130.97 202.172 130.546 202.172 125.983V119.26C202.172 119.083 202.277 118.977 202.483 118.977H206.3C207.827 118.977 209.596 120.074 209.839 123.328C209.943 123.682 210.187 123.86 210.43 123.86C210.639 123.86 210.88 123.682 211.019 123.364V113.919C210.985 113.53 210.741 113.387 210.464 113.387C210.187 113.387 209.909 113.564 209.839 113.848C209.389 116.996 207.584 117.668 205.952 117.668H202.481C202.377 117.668 202.17 117.528 202.17 117.384V112.608C202.17 107.621 202.274 106.983 203.697 106.876C204.391 106.84 205.086 106.805 205.779 106.805C209.666 106.805 210.116 107.194 210.741 107.689C211.991 108.679 213.135 110.98 213.83 113.349C213.935 113.489 214.108 113.56 214.28 113.56C214.558 113.56 214.835 113.383 214.94 113.065C214.767 110.553 214.385 107.298 214.176 106.235C214.071 105.67 213.864 105.67 213.205 105.67H195.126C194.744 105.67 194.535 105.881 194.535 106.129C194.535 106.342 194.707 106.59 194.985 106.765C197.137 106.801 197.726 107.119 197.899 108.002C198.071 108.852 198.108 110.973 198.108 114.759V121.94C198.108 125.76 198.074 128.733 197.899 129.546C197.656 130.573 197.412 130.961 195.087 131.102C194.844 131.243 194.671 131.527 194.671 131.774C194.671 132.022 194.88 132.236 195.33 132.236H213.755C214.31 132.236 214.624 132.058 214.726 131.6C215.003 130.396 215.628 127.212 216.044 124.843C216.049 124.461 215.737 124.284 215.46 124.284Z" fill="#7A7D6C"/>
<path d="M241.345 130.971C239.679 130.901 239.368 130.192 238.708 129.095C237.701 127.467 234.094 121.135 232.08 119.118C234.892 118.234 237.319 116.145 237.319 112.538C237.319 107.197 232.392 105.639 227.186 105.639H217.469C217.158 105.639 216.915 105.886 216.915 106.204C216.915 106.418 217.019 106.629 217.296 106.77C219.588 106.806 220.038 107.194 220.176 108.007C220.315 108.821 220.42 111.192 220.42 114.764V121.982C220.42 125.591 220.385 128.739 220.21 129.518C220.038 130.401 219.69 130.969 217.365 131.039C217.121 131.216 216.983 131.464 216.983 131.711C216.983 131.995 217.192 132.243 217.608 132.243H227.636C228.018 132.243 228.227 131.995 228.227 131.711C228.227 131.5 228.089 131.216 227.775 131.039C224.409 130.898 224.409 130.19 224.409 125.768V120.283C224.409 120.072 224.479 119.822 224.895 119.822H227.255C227.566 119.822 227.88 119.963 228.539 120.742C230.309 122.865 232.46 126.899 235.167 131.498C235.201 131.568 235.41 132.1 235.444 132.241H241.343C241.691 132.241 241.829 131.957 241.829 131.675C241.829 131.393 241.693 131.078 241.345 130.971ZM225.557 118.482C224.481 118.482 224.411 118.341 224.411 117.88V112.15C224.411 109.602 224.445 108.825 224.55 108.082C224.654 107.374 225.138 106.915 226.736 106.915C230.9 106.915 232.773 109.286 232.773 112.293C232.773 117.21 230.069 118.482 225.557 118.482Z" fill="#7A7D6C"/>
<path d="M272.124 108.362C272.297 107.265 272.715 106.877 275.075 106.807C275.318 106.666 275.457 106.348 275.457 106.098C275.457 105.848 275.318 105.637 274.902 105.637H264.839C264.423 105.637 264.285 105.885 264.285 106.132C264.285 106.38 264.423 106.698 264.666 106.804C267.199 106.875 267.581 107.336 267.685 108.219C267.824 109.175 267.824 111.19 267.824 114.551V117.24C267.824 117.381 267.756 117.488 267.615 117.488H256.579C256.44 117.488 256.336 117.381 256.336 117.24V114.551C256.336 112.571 256.336 109.668 256.545 108.36C256.718 107.3 257.1 106.875 259.459 106.804C259.702 106.664 259.841 106.346 259.841 106.096C259.841 105.846 259.702 105.635 259.286 105.635H249.224C248.808 105.635 248.669 105.882 248.669 106.13C248.669 106.377 248.808 106.695 249.051 106.802C251.583 106.873 251.965 107.334 252.069 108.217C252.208 109.173 252.242 111.188 252.242 114.515V122.723C252.242 126.084 252.208 128.56 252.069 129.48C251.897 130.611 251.272 130.965 249.085 131.108C248.842 131.285 248.703 131.569 248.703 131.817C248.703 132.028 248.842 132.241 249.258 132.241H259.286C259.668 132.241 259.841 132.03 259.841 131.78C259.841 131.569 259.702 131.285 259.459 131.108C256.37 131.001 256.336 130.72 256.336 124.385V119.291C256.336 119.114 256.475 119.007 256.579 119.007H267.615C267.753 119.007 267.824 119.148 267.824 119.291V122.652C267.824 126.05 267.824 128.596 267.685 129.516C267.512 130.649 267.06 130.967 264.735 131.108C264.491 131.249 264.353 131.533 264.353 131.78C264.353 132.028 264.491 132.241 264.907 132.241H274.902C275.284 132.241 275.457 132.03 275.457 131.746C275.457 131.535 275.318 131.251 275.109 131.11C272.993 131.04 272.367 130.615 272.158 129.589C271.986 128.846 271.986 127.254 271.986 124.388V114.517C271.986 110.59 272.022 109.141 272.124 108.362Z" fill="#7A7D6C"/>
<path d="M302.835 131.076C300.719 130.899 300.405 130.263 299.4 127.786C297.248 122.373 293.675 112.36 291.349 106.453C291.14 105.958 291.072 104.824 290.377 104.824C289.961 104.824 289.822 105.072 289.647 105.426C289.37 106.028 288.64 106.771 288.19 107.018C287.426 107.407 287.46 108.292 287.253 109.071C285.483 113.707 283.782 118.376 282.396 122.126C281.043 125.735 280.071 128.281 279.621 129.166C279.1 130.227 278.475 131.006 276.463 131.076C276.325 131.076 276.047 131.465 276.047 131.785C276.047 131.996 276.186 132.21 276.638 132.21H284.376C284.758 132.21 285.001 131.998 285.001 131.678C285.001 131.501 284.896 131.29 284.619 131.076C283.787 131.04 281.391 131.076 281.391 129.768C281.391 129.132 282.919 124.956 283.682 122.939C283.821 122.551 284.098 122.514 284.342 122.514H292.947C294.232 125.946 295.516 129.518 295.516 129.979C295.516 130.829 294.509 131.04 293.191 131.076C292.947 131.254 292.775 131.537 292.775 131.749C292.775 131.996 292.984 132.207 293.434 132.207H302.594C302.976 132.207 303.185 131.96 303.185 131.712C303.183 131.465 303.078 131.254 302.835 131.076ZM284.444 120.781L288.435 109.991L292.356 120.781H284.444Z" fill="#7A7D6C"/>
<path d="M328.202 130.971C326.536 130.901 326.224 130.192 325.565 129.095C324.558 127.467 320.951 121.135 318.937 119.118C321.749 118.234 324.176 116.145 324.176 112.538C324.176 107.197 319.248 105.639 314.043 105.639H304.326C304.015 105.639 303.771 105.886 303.771 106.204C303.771 106.418 303.876 106.629 304.153 106.77C306.445 106.806 306.895 107.194 307.033 108.007C307.172 108.821 307.276 111.192 307.276 114.764V121.982C307.276 125.591 307.242 128.739 307.067 129.518C306.895 130.401 306.547 130.969 304.222 131.039C303.978 131.216 303.84 131.464 303.84 131.711C303.84 131.995 304.049 132.243 304.465 132.243H314.493C314.875 132.243 315.084 131.995 315.084 131.711C315.084 131.5 314.946 131.216 314.632 131.039C311.266 130.898 311.266 130.19 311.266 125.768V120.283C311.266 120.072 311.336 119.822 311.752 119.822H314.111C314.423 119.822 314.737 119.963 315.396 120.742C317.166 122.865 319.317 126.899 322.024 131.498C322.058 131.568 322.267 132.1 322.301 132.241H328.2C328.547 132.241 328.686 131.957 328.686 131.675C328.686 131.393 328.55 131.078 328.202 130.971ZM312.413 118.482C311.338 118.482 311.268 118.341 311.268 117.88V112.15C311.268 109.602 311.302 108.825 311.407 108.082C311.511 107.374 311.995 106.915 313.593 106.915C317.757 106.915 319.63 109.286 319.63 112.293C319.633 117.21 316.925 118.482 312.413 118.482Z" fill="#7A7D6C"/>
<path d="M353.187 105.674H344.754C344.304 105.674 344.129 105.921 344.129 106.169C344.129 106.487 344.338 106.771 344.581 106.805C346.177 106.946 347.877 107.089 348.154 108.433C348.327 109.246 348.432 111.299 348.432 114.2V121.595C348.432 129.625 344.788 131.04 341.04 131.04C334.516 131.04 334.482 124.565 334.482 121.063V114.484C334.482 111.193 334.516 109.353 334.655 108.433C334.828 107.373 335.419 106.878 337.744 106.805C338.021 106.664 338.16 106.416 338.16 106.169C338.16 105.921 337.951 105.674 337.569 105.674H327.506C327.124 105.674 326.952 105.921 326.952 106.169C326.952 106.416 327.09 106.7 327.334 106.805C330.284 106.875 330.284 107.016 330.284 112.217V114.27L330.25 120.922C330.25 123.187 330.32 124.815 330.666 126.23C332.089 131.819 336.878 132.987 340.347 132.987C346.454 132.987 350.166 129.909 350.166 121.311V113.845C350.166 111.865 350.2 110.059 350.271 108.751C350.375 107.123 351.659 106.875 353.36 106.805C353.603 106.698 353.776 106.416 353.776 106.169C353.776 105.921 353.603 105.674 353.187 105.674Z" fill="#7A7D6C"/>
<path d="M386.084 131.077C383.134 130.97 383.1 130.866 383.1 124.284V112.962C383.1 111.441 383.1 109.176 383.17 108.327C383.241 107.407 383.414 107.019 386.016 106.842C386.294 106.664 386.432 106.381 386.432 106.133C386.432 105.849 386.259 105.602 385.841 105.602H385.807L379.631 105.779C378.695 105.815 378.59 106.344 378.243 107.371C376.472 112.501 373.592 119.506 371.198 125.663C369.498 121.311 366.064 113.351 363.529 107.194C363.461 106.203 363.113 105.779 362.42 105.779L355.687 105.602H355.653C355.167 105.602 354.994 105.885 354.994 106.167C354.994 106.415 355.133 106.699 355.376 106.803C358.499 107.191 358.708 107.475 358.708 110.8C358.708 111.65 358.674 112.569 358.674 113.453V125.233C358.674 130.116 358.431 130.859 355.064 131.036C354.821 131.213 354.683 131.497 354.683 131.708C354.683 131.992 354.892 132.24 355.271 132.24H363.772C364.188 132.24 364.361 131.992 364.361 131.708C364.361 131.461 364.223 131.177 363.979 131.036C361.688 130.859 360.786 130.505 360.579 129.655C360.406 128.947 360.197 127.532 360.197 124.949V109.665C362.972 116.244 367.693 127.743 368.525 130.539C368.664 131 368.975 132.06 369.566 132.06C370.157 132.06 370.364 131.706 370.746 130.716C372.967 124.949 376.888 115.361 379.004 109.631L378.97 122.544C378.97 125.94 378.936 128.595 378.797 129.514C378.624 130.682 378.243 131 375.951 131.07C375.779 131.141 375.535 131.459 375.535 131.779C375.535 132.026 375.674 132.24 376.16 132.24H385.912C386.328 132.24 386.5 132.029 386.5 131.745C386.5 131.538 386.362 131.254 386.084 131.077Z" fill="#7A7D6C"/>
<path d="M395.177 108.433C395.349 107.336 395.87 106.912 398.229 106.841C398.507 106.7 398.679 106.453 398.679 106.205C398.679 105.921 398.47 105.674 398.054 105.674H387.816C387.401 105.674 387.191 105.921 387.191 106.205C387.191 106.453 387.364 106.737 387.607 106.841C390.14 106.912 390.592 107.407 390.696 108.292C390.835 109.249 390.869 111.159 390.869 114.484V122.621C390.869 125.982 390.835 128.494 390.696 129.414C390.524 130.581 390.071 130.936 387.644 131.043C387.366 131.183 387.194 131.467 387.194 131.715C387.194 131.999 387.403 132.246 387.819 132.246H398.056C398.472 132.246 398.645 131.999 398.645 131.715C398.645 131.467 398.507 131.183 398.229 131.043C396.113 130.936 395.417 130.618 395.177 129.521C395.004 128.778 395.004 127.116 395.004 124.25V114.486C395.002 112.43 395.002 109.671 395.177 108.433Z" fill="#7A7D6C"/>
</svg>
