<svg xmlns="http://www.w3.org/2000/svg" width="79" height="83" fill="none"><g fill="#D2BB3E" clip-path="url(#a)"><path d="M5.837 47.441c-1.946.04-3.891.144-5.837.575 1.946.43 3.891.534 5.837.573.026 2.505.144 5.022.574 7.527.431-2.505.549-5.022.575-7.527 1.946-.039 3.891-.143 5.837-.573-1.946-.418-3.891-.535-5.837-.575-.04-2.504-.144-5.022-.575-7.526-.417 2.505-.535 5.022-.574 7.526ZM58.003 19.384c-1.946.039-3.891.143-5.837.574 1.946.43 3.891.535 5.837.574.026 2.504.144 5.022.574 7.526.431-2.504.549-5.022.575-7.526 1.946-.04 3.891-.144 5.837-.574-1.946-.418-3.891-.535-5.837-.574-.04-2.505-.144-5.022-.575-7.527-.43 2.505-.548 5.022-.574 7.527ZM30.438 74.339c-1.946.04-3.891.144-5.837.574 1.946.417 3.891.535 5.837.574.026 2.504.144 5.022.575 7.526.43-2.504.548-5.022.574-7.526 1.946-.04 3.891-.144 5.837-.574-1.946-.417-3.891-.535-5.837-.574-.04-2.504-.144-5.022-.575-7.526-.417 2.504-.535 5.008-.574 7.526ZM66.047 43.867c-3.604.066-7.208.274-10.825 1.057 3.604.783 7.208.991 10.825 1.057.065 4.643.26 9.287 1.07 13.93.797-4.643 1.006-9.287 1.071-13.944 3.604-.065 7.208-.273 10.825-1.056-3.604-.783-7.208-.991-10.825-1.057-.065-4.643-.274-9.287-1.07-13.944-.797 4.67-1.006 9.314-1.071 13.957ZM19.991 25.15c-6.424.064-12.835.286-19.26 1.017 6.425.73 12.836.952 19.26 1.017-3.42 3.509-5 5.57-7.403 8.779 3.212-2.4 5.275-3.992 8.8-7.41.053 3.562.066 7.123.21 10.697.17 4.357.365 8.713.796 13.083.431-4.357.627-8.713.797-13.083.13-3.561.156-7.122.209-10.696 3.512 3.417 5.575 5.009 8.8 7.409-2.402-3.21-3.995-5.27-7.403-8.779 6.424-.065 12.836-.287 19.26-1.017-6.424-.73-12.836-.94-19.26-1.005 3.408-3.522 5.001-5.57 7.404-8.778-3.213 2.4-5.276 3.991-8.801 7.409-.053-3.561-.066-7.136-.21-10.697-.169-4.383-.378-8.74-.809-13.096-.43 4.357-.627 8.713-.796 13.083-.144 3.561-.157 7.135-.21 10.696-3.525-3.417-5.588-5.009-8.8-7.409 2.415 3.196 4.008 5.257 7.416 8.78Z"/></g><defs><clipPath id="a"><path fill="#fff" d="M0 0h79v83H0z"/></clipPath></defs></svg>