<svg xmlns="http://www.w3.org/2000/svg" width="96" height="149" fill="none"><g clip-path="url(#a)"><path fill="#BDA523" d="M94.695 82.955c-1.369-2.317-5.588-5.467-12.48-7.487-6.888-2.018-12.198-7.642-12.83-9.23-.635-1.584.555-5.227 1.11-7.843.552-2.616 1.585-3.094 3.402-6.734 1.825-3.647.395-5.627-2.53-7.45-2.93-1.82-6.732-4.914-7.762-6.657-1.033-1.743.827-7.613.827-7.613l.662.315c2.783 1.316 4.16 1.27 4.763.88.606-.392.862-1.34.902-1.913.037-.571.304-.729.387-.844.08-.114.608-.106.86-.456.248-.355-.214-.934-.214-.934s.614.16.88-.032c.267-.195.353-.5.363-.93.016-.426.198-1.409.198-1.409s1.449-.237 1.286-1.18c-.16-.939-.558-1.1-1.66-3.213-.032-.064-.064-.128-.088-.2 0 0 .139.13.299.165.16.032.371-.061.371-.061s-.168.03-.366-.067c-.197-.096-.368-.254-.368-.254-.472-2.17 3.106-5.586-1.633-10.327C68 6.406 61.996 6.15 59.261 7.706a7.548 7.548 0 0 0-2.322 2.06s-.384.252-.645.51c-.26.262-.377.51-.377.51s-.208-.659-.73-1.235c-.548-.606-1.25-1.036-1.25-1.036s-.139.603-.181.937c-.043.336-.01.729-.01.729s-1.52-.807-2.923-.4c-3.53 1.024-4.128 3.95-1.98 8.509 2.151 4.561 1.996 6.86.307 8.55-1.062 1.067-2.871 1.93-2.871 1.93-2.549-4.266-6.324-9.474-11.832-14.986C20.672 0 .472 0 .472 0s5.35 21.036 16.635 32.325c7.867 7.877 20.59 12.508 27.568 14.595l-.259.782c-6.476-.488-17.662-.68-26.041 2.613C5.857 55.227 0 64.892 0 64.892s15.682 3.961 31.207.95a48.626 48.626 0 0 0 5.538-1.404s-2.023 2.819-3.107 3.98c-3.324 3.574-5.235 5.258-5.235 5.258s-2.855.77-4.312 1.509c-1.455.75-3.032.782-5.262.862-2.231.077-2.808-.11-2.415.66.394.763 2.337.928 2.337.928s-2.199.62-2.679.72c-.48.097-.096.892.54 1.098.634.208 4.757-1.081 4.757-1.081s-.867.857-2.167 1.521c-1.302.665-2.19.854-2.19.854s-.481.39.082.828c.56.438 2.308-.022 4.003-.625 1.697-.603 2.767-1.148 2.767-1.148s-1.204 1.944-2.391 3.254c-1.19 1.31-1.855 1.476-1.812 1.893.043.408.451 1.025 1.468.499 1.014-.513 3.215-2.488 4.523-3.713 1.305-1.22 2.212-1.225 2.212-1.225s.499.715.045 2.09c-.157.478-.512.491-1.12 1.38-.612.891.41 1.96.91 1.706.498-.254.29-1.106 1.19-1.688 1.008-.645 1.873-2.047 1.83-3.307-.04-1.26 1.86-3.323 2.522-4.303.659-.982 4.112-4.067 4.112-4.067s8.504-7.792 13.177-13.547c.739-.91 2.57-2.968 2.57-2.968.634 2.466 1.785 7.506.896 8.403-1.188 1.188-3.618 1.559-6.551 2.741-2.927 1.193-5.342 6.302-7.125 8.082-1.782 1.786-4.197 2.635-4.197 2.635s1.545 1.073 1.545 1.96c0 .894 0 1.19 1.425 2.615 1.425 1.428 1.011 1.012 1.011 1.962 0 .948.531 1.9 2.375 1.9 1.841 0 2.02.356 2.378 1.306.357.953 1.665 1.663 2.377.953.71-.716 1.921-1.447 2.751-.614.833.833-.101 1.367.713 2.178.811.814 2.655-1.073 3.682-.673 1.03.395.275 1.508 1.265 1.98.99.476 1.548.158 3.093-.394 1.545-.555 1.11.555 2.297 1.188 1.188.635 2.813-.636 4.355-.636 1.545 0 2.575 1.308 2.575 1.308s-3.605 2.416-6.335 5.152c-2.737 2.733-13.147 12.596-15.29 13.546-2.137.953-1.66-.95-3.64-1.265-1.98-.32-4.197 2.456-2.772 4.831 1.425 2.379.95 4.124-.715 7.765-1.663 3.644-.95 5.229-.078 7.688.873 2.455 2.378 1.583 2.378-1.666 0-.422.08-.902.221-1.42 0 0 .14.085.206.093.406.051.328-.427.328-.427l.251-.024s-.008.492.395.395c.403-.098.16-.517.16-.517l.23-.11s.162.462.506.235c.345-.224-.026-.539-.026-.539l.179-.179s.31.382.557.051c.243-.329-.208-.502-.208-.502l.104-.227s.425.254.537-.144c.12-.395-.363-.398-.363-.398l.021-.253s.48.09.459-.315c-.027-.414-.486-.254-.486-.254l-.064-.243s.48-.08.32-.456c-.165-.377-.539-.067-.539-.067l-.146-.208s.427-.24.146-.539c-.282-.302-.552.208-.552.208 1.302-2.264 2.743-4.207 2.994-4.461.478-.472 26.298-17.427 26.298-17.427s.395 2.296 1.032 7.049c.63 4.757 2.511 14.996 1.86 17.964-.654 2.974-.758 3.113-2.321 3.508-1.564.395-2.714 3.884-.376 5.429 2.334 1.543 3.871 3.86 3.871 7.901 0 4.039-1.107 6.126.873 6.126 1.307 0 2.586-2.197 3.303-4.741l.203-.098s-.021.491.385.405c.403-.08.178-.509.178-.509l.23-.102s.147.473.493.251c.35-.214-.005-.539-.005-.539l.179-.176s.299.395.555.066c.256-.323-.192-.507-.192-.507l.11-.224s.413.262.546-.128c.128-.39-.355-.411-.355-.411l.03-.254s.48.11.461-.304c-.01-.408-.472-.262-.472-.262l-.061-.245s.485-.062.333-.443c-.152-.382-.536-.088-.536-.088l-.139-.209s.435-.224.163-.533c-.272-.31-.536.101-.536.101l-.203-.147s.333-.363-.03-.558c-.36-.195-.464.281-.464.281l-.29.053c-.038-3.846-.35-10.891-.35-13.696 0-2.968 1.9-28.52 1.9-28.52s4.28-2.38 4.752-4.816c.475-2.434-1.425-4.18-1.425-4.18h1.348c.87 0 .512-.12 1.265-.873.755-.75 1.07 0 2.102 0 1.025 0 .414-.531 1.025-1.148.616-.614 1.153-.2 1.943-.2.792 0 1.585-.673 1.585-.673s.048-.301-1.316-2.618ZM56.982 31.51c-.267 1.85-1.372 2.86-1.372 2.86-2.388 2.39-4.443 5.086-4.443 5.086s-.904-3.662-4.064-9.276c0 0 2.615.187 4.1-.275 4.586-1.436 4.327-7.028 4.327-7.028s2.098 4.162 1.452 8.633Zm.662-17.55c-1.022-.134-1.532-.879-1.532-.879l-.157.195s.896.368 1.262 1.244c.365.875.043 2.252.043 2.252s-1.1-.694-1.497-1.644c-.398-.95-.008-1.767-.008-1.767l-.246-.04s.128.964-.446 1.717c-.576.75-1.929 1.16-1.929 1.16s.053-1.3.678-2.116a2.297 2.297 0 0 1 1.529-.892l-.09-.237s-.77.595-1.709.475c-.939-.12-1.969-1.092-1.969-1.092s1.148-.606 2.172-.472c1.022.133 1.535.875 1.535.875l.154-.194s-.896-.369-1.26-1.244c-.367-.873-.04-2.253-.04-2.253s1.097.691 1.492 1.644c.398.953.008 1.767.008 1.767l.249.043s-.131-.964.442-1.72c.577-.75 1.932-1.158 1.932-1.158s-.053 1.298-.68 2.117a2.317 2.317 0 0 1-1.526.894l.088.232s.77-.59 1.71-.472c.94.12 1.972 1.092 1.972 1.092s-1.155.606-2.177.472Z"/></g><defs><clipPath id="a"><path fill="#fff" d="M0 0h96v149H0z"/></clipPath></defs></svg>